<svg width="27" height="37" viewBox="0 0 27 37" fill="none" xmlns="http://www.w3.org/2000/svg">
<path fill="#ffffff" d="M0.50476 21.4362L0.505439 21.4141L0.504178 21.3921C0.501418 21.344 0.500015 21.2954 0.500015 21.2464V15.8838C0.622829 16.0073 0.754803 16.1268 0.8947 16.2421C1.6423 16.8584 2.65788 17.393 3.8568 17.8328C6.2569 18.7133 9.47693 19.2447 13 19.2447C16.5231 19.2447 19.743 18.7133 22.1431 17.8329C23.342 17.3931 24.3576 16.8585 25.1052 16.2422C25.2452 16.1269 25.3772 16.0074 25.5 15.8839V21.2464C25.5 21.2955 25.4986 21.3442 25.4958 21.3925L25.4946 21.4145L25.4952 21.4365C25.4984 21.5395 25.5 21.6428 25.5 21.7464C25.5 22.2474 25.2379 22.7808 24.642 23.3227C24.046 23.8647 23.1556 24.3758 22.0129 24.8152C19.7309 25.6929 16.5445 26.2464 13 26.2464C9.45548 26.2464 6.26909 25.6929 3.9871 24.8152C2.84444 24.3758 1.95405 23.8647 1.35799 23.3227C0.762077 22.7808 0.5 22.2474 0.5 21.7464C0.5 21.6427 0.50158 21.5392 0.50476 21.4362Z" stroke="black"/>
<path fill="#ffffff" d="M0.50476 31.4362L0.505439 31.4141L0.504178 31.3921C0.501418 31.344 0.500015 31.2954 0.500015 31.2464V25.8838C0.622829 26.0073 0.754803 26.1268 0.8947 26.2421C1.6423 26.8584 2.65788 27.393 3.8568 27.8328C6.2569 28.7133 9.47693 29.2447 13 29.2447C16.5231 29.2447 19.743 28.7133 22.1431 27.8329C23.342 27.3931 24.3576 26.8585 25.1052 26.2422C25.2452 26.1269 25.3772 26.0074 25.5 25.8839V31.2464C25.5 31.2955 25.4986 31.3442 25.4958 31.3925L25.4946 31.4145L25.4952 31.4365C25.4984 31.5395 25.5 31.6428 25.5 31.7464C25.5 32.2474 25.2379 32.7808 24.642 33.3227C24.046 33.8647 23.1556 34.3758 22.0129 34.8152C19.7309 35.6929 16.5445 36.2464 13 36.2464C9.45548 36.2464 6.26909 35.6929 3.9871 34.8152C2.84444 34.3758 1.95405 33.8647 1.35799 33.3227C0.762077 32.7808 0.5 32.2474 0.5 31.7464C0.5 31.6427 0.50158 31.5392 0.50476 31.4362Z" stroke="black"/>
<path fill="#ffffff" d="M25.462 4.62623L25.4619 4.62625L25.4645 4.6356C25.4979 4.75581 25.515 4.87695 25.515 5V11C25.515 11.0491 25.5136 11.0978 25.5108 11.1461L25.5095 11.1681L25.5102 11.1901C25.5134 11.2931 25.515 11.3964 25.515 11.5C25.515 12.001 25.2529 12.5344 24.657 13.0763C24.0609 13.6183 23.1705 14.1294 22.0279 14.5689C19.7459 15.4465 16.5595 16 13.015 16C9.47044 16 6.28405 15.4465 4.00206 14.5689C2.8594 14.1294 1.96901 13.6183 1.37295 13.0763C0.777038 12.5344 0.514961 12.001 0.514961 11.5C0.514961 11.3963 0.516541 11.2929 0.519721 11.1898L0.5204 11.1677L0.51914 11.1457C0.516379 11.0976 0.514977 11.049 0.514977 11V5.13999V5.12215L0.513704 5.10435C0.511226 5.06967 0.509979 5.0349 0.509979 5C0.509979 4.49898 0.772056 3.96558 1.36797 3.4237C1.96403 2.88169 2.85442 2.37062 3.99708 1.93114C6.27906 1.05345 9.46545 0.5 13.01 0.5C16.3375 0.5 19.3512 0.987798 21.5973 1.7749C22.7211 2.16869 23.6349 2.63124 24.2976 3.13116C24.9646 3.63432 25.3382 4.14496 25.462 4.62623Z" stroke="black"/>
<path fill="#ffffff" d="M25.5 5C25.5 5.50102 25.2379 6.03442 24.642 6.5763C24.046 7.11831 23.1556 7.62938 22.0129 8.06886C19.7309 8.94655 16.5445 9.5 13 9.5C9.45547 9.5 6.26908 8.94655 3.9871 8.06886C2.84444 7.62938 1.95405 7.11831 1.35799 6.5763C0.762077 6.03442 0.5 5.50102 0.5 5C0.5 4.49898 0.762077 3.96558 1.35799 3.4237C1.95405 2.88169 2.84444 2.37062 3.9871 1.93114C6.26908 1.05345 9.45547 0.5 13 0.5C16.5445 0.5 19.7309 1.05345 22.0129 1.93114C23.1556 2.37062 24.046 2.88169 24.642 3.4237C25.2379 3.96558 25.5 4.49898 25.5 5Z" stroke="black"/>
</svg>
