<svg width="24" height="24" viewBox="0 0 24 24" fill="none" xmlns="http://www.w3.org/2000/svg">
<path fill="#40aaff" d="M20.7458 14.9116L24 13.7062L23.9869 10.2065L20.7185 9.02291C20.5855 8.63082 20.4263 8.24814 20.2418 7.87745L21.6916 4.72145L19.2076 2.256L16.0593 3.72982C15.6879 3.54548 15.3045 3.38657 14.9116 3.25418L13.7062 0L10.2065 0.0130909L9.02291 3.28145C8.63086 3.41457 8.24818 3.57383 7.87745 3.75818L4.72145 2.30836L2.256 4.79127L3.72982 7.94182C3.54543 8.31313 3.38651 8.69656 3.25418 9.08945L0 10.2938L0.0130909 13.7935L3.28145 14.9771C3.41449 15.3692 3.57376 15.7519 3.75818 16.1225L2.30836 19.2785L4.79127 21.744L7.94073 20.2702C8.31205 20.4546 8.69548 20.6135 9.08836 20.7458L10.2938 24L13.7935 23.9869L14.9771 20.7185C15.3691 20.5855 15.7518 20.4262 16.1225 20.2418L19.2785 21.6916L21.744 19.2087L20.2702 16.0593C20.4546 15.688 20.6135 15.3045 20.7458 14.9116ZM20.4327 18.9807L19.0418 20.3825L16.1029 19.032L15.6349 19.2665C15.3071 19.4287 14.9689 19.569 14.6225 19.6865L14.1295 19.8567L13.0276 22.8993L11.0531 22.9069L9.92945 19.8753L9.432 19.7105C9.08616 19.5936 8.74865 19.4532 8.42182 19.2905L7.95273 19.0615L5.02036 20.4327L3.61745 19.0418L4.96909 16.1018L4.73345 15.6327C4.57085 15.3057 4.43018 14.9682 4.31236 14.6225L4.14327 14.1295L1.09964 13.0276L1.09418 11.0531L4.12364 9.92945L4.28945 9.432C4.40624 9.08589 4.54619 8.74803 4.70836 8.42073L4.93964 7.95164L3.56727 5.01927L4.95818 3.61745L7.89709 4.968L8.36509 4.73345C8.69293 4.57131 9.03112 4.43101 9.37745 4.31345L9.87055 4.14327L10.9724 1.10073L12.9469 1.09309L14.0705 4.12473L14.568 4.28945C14.9135 4.40634 15.2507 4.54666 15.5771 4.70945L16.0462 4.93964L18.9818 3.56727L20.3836 4.95818L19.032 7.89818L19.2676 8.36727C19.4302 8.69429 19.5709 9.03176 19.6887 9.37745L19.8578 9.87055L22.9015 10.9724L22.9069 12.9469L19.8775 14.0705L19.7116 14.568C19.5949 14.9141 19.4549 15.252 19.2927 15.5793L19.0615 16.0484L20.4327 18.9807ZM12 6.76364C10.9643 6.76364 9.95195 7.07074 9.09083 7.64612C8.22972 8.2215 7.55856 9.03931 7.16223 9.99613C6.7659 10.953 6.6622 12.0058 6.86425 13.0216C7.0663 14.0373 7.56501 14.9703 8.29733 15.7027C9.02965 16.435 9.96268 16.9337 10.9784 17.1357C11.9942 17.3378 13.047 17.2341 14.0039 16.8378C14.9607 16.4414 15.7785 15.7703 16.3539 14.9092C16.9293 14.0481 17.2364 13.0357 17.2364 12C17.2364 10.6112 16.6847 9.27934 15.7027 8.29733C14.7207 7.31532 13.3888 6.76364 12 6.76364ZM12 16.1455C11.1801 16.1455 10.3786 15.9023 9.69691 15.4468C9.01519 14.9913 8.48386 14.3439 8.1701 13.5864C7.85634 12.8289 7.77425 11.9954 7.9342 11.1913C8.09415 10.3871 8.48897 9.64847 9.06872 9.06872C9.64847 8.48897 10.3871 8.09415 11.1913 7.9342C11.9954 7.77425 12.8289 7.85634 13.5864 8.1701C14.3439 8.48386 14.9913 9.01519 15.4468 9.69691C15.9023 10.3786 16.1455 11.1801 16.1455 12C16.1443 13.0991 15.7072 14.1528 14.93 14.93C14.1528 15.7072 13.0991 16.1443 12 16.1455Z"/>
</svg>
