<svg width="178" height="51" viewBox="0 0 178 51" fill="none" xmlns="http://www.w3.org/2000/svg">
<path d="M67.9507 31.668V19.1941H71.4078L77.7517 26.7853H76.1479V19.1941H80.2465V31.668H76.7894L70.4455 24.0767H72.0493V31.668H67.9507Z" fill="#ededed"/>
<path d="M136.529 31.668V19.1941H142.535C143.699 19.1941 144.703 19.3841 145.546 19.7643C146.401 20.1445 147.061 20.6909 147.524 21.4037C147.987 22.1046 148.219 22.9362 148.219 23.8985C148.219 24.8608 147.987 25.6924 147.524 26.3933C147.061 27.0823 146.401 27.611 145.546 27.9793C144.703 28.3476 143.699 28.5317 142.535 28.5317H138.864L140.735 26.8032V31.668H136.529ZM143.996 31.668L140.931 27.1239H145.386L148.486 31.668H143.996ZM140.735 27.2665L138.864 25.3597H142.267C142.849 25.3597 143.277 25.2291 143.55 24.9677C143.835 24.7064 143.978 24.35 143.978 23.8985C143.978 23.4471 143.835 23.0907 143.55 22.8293C143.277 22.568 142.849 22.4373 142.267 22.4373H138.864L140.735 20.5306V27.2665Z" fill="#ededed"/>
<path d="M156.743 31.9531C155.733 31.9531 154.795 31.7927 153.928 31.472C153.072 31.1512 152.33 30.6998 151.7 30.1177C151.07 29.5237 150.577 28.8287 150.221 28.0327C149.876 27.2368 149.704 26.3695 149.704 25.431C149.704 24.4806 149.876 23.6134 150.221 22.8293C150.577 22.0334 151.07 21.3443 151.7 20.7622C152.33 20.1682 153.072 19.7108 153.928 19.3901C154.795 19.0693 155.733 18.9089 156.743 18.9089C157.765 18.9089 158.703 19.0693 159.559 19.3901C160.414 19.7108 161.156 20.1682 161.786 20.7622C162.416 21.3443 162.903 22.0334 163.247 22.8293C163.604 23.6134 163.782 24.4806 163.782 25.431C163.782 26.3695 163.604 27.2368 163.247 28.0327C162.903 28.8287 162.416 29.5237 161.786 30.1177C161.156 30.6998 160.414 31.1512 159.559 31.472C158.703 31.7927 157.765 31.9531 156.743 31.9531ZM156.743 28.5495C157.135 28.5495 157.497 28.4782 157.83 28.3357C158.175 28.1931 158.472 27.9912 158.721 27.7298C158.982 27.4566 159.184 27.1299 159.327 26.7497C159.469 26.3577 159.541 25.9181 159.541 25.431C159.541 24.944 159.469 24.5103 159.327 24.1302C159.184 23.7381 158.982 23.4114 158.721 23.1501C158.472 22.8768 158.175 22.6689 157.83 22.5264C157.497 22.3838 157.135 22.3125 156.743 22.3125C156.351 22.3125 155.983 22.3838 155.638 22.5264C155.306 22.6689 155.009 22.8768 154.747 23.1501C154.498 23.4114 154.302 23.7381 154.159 24.1302C154.017 24.5103 153.945 24.944 153.945 25.431C153.945 25.9181 154.017 26.3577 154.159 26.7497C154.302 27.1299 154.498 27.4566 154.747 27.7298C155.009 27.9912 155.306 28.1931 155.638 28.3357C155.983 28.4782 156.351 28.5495 156.743 28.5495Z" fill="#ededed"/>
<path d="M165.704 31.668V19.1941H169.161L175.505 26.7853H173.901V19.1941H178V31.668H174.543L168.199 24.0767H169.803V31.668H165.704Z" fill="#ededed"/>
<path d="M82.6688 31.668V19.1941H88.8167C90.2066 19.1941 91.4302 19.4495 92.4876 19.9603C93.5449 20.4593 94.3705 21.1721 94.9645 22.0987C95.5585 23.0253 95.8555 24.1302 95.8555 25.4132C95.8555 26.7081 95.5585 27.8248 94.9645 28.7634C94.3705 29.69 93.5449 30.4087 92.4876 30.9196C91.4302 31.4185 90.2066 31.668 88.8167 31.668H82.6688ZM86.8743 28.3891H88.6385C89.2325 28.3891 89.7492 28.2763 90.1888 28.0506C90.6402 27.8248 90.9907 27.4922 91.2402 27.0526C91.4897 26.6012 91.6144 26.0547 91.6144 25.4132C91.6144 24.7836 91.4897 24.249 91.2402 23.8094C90.9907 23.3699 90.6402 23.0372 90.1888 22.8115C89.7492 22.5858 89.2325 22.4729 88.6385 22.4729H86.8743V28.3891Z" fill="#ededed"/>
<path d="M113.92 31.668L108.645 19.1941H113.171L117.466 29.7256H114.775L119.194 19.1941H123.329L118.054 31.668H113.92Z" fill="#ededed"/>
<path d="M55.5388 19.2059H65.7358V22.3739H55.5388V19.2059Z" fill="#ededed"/>
<path d="M55.5388 28.5H65.7358V31.668H55.5388V28.5Z" fill="#ededed"/>
<path d="M55.5388 23.9084H65.7358V26.9774H55.5388V23.9084Z" fill="#ededed"/>
<path d="M97.7126 19.2059H107.91V22.3739H97.7126V19.2059Z" fill="#ededed"/>
<path d="M97.7126 28.5H107.91V31.668H97.7126V28.5Z" fill="#ededed"/>
<path d="M97.7126 23.9084H107.91V26.9774H97.7126V23.9084Z" fill="#ededed"/>
<path d="M124.245 19.2059H134.441V22.3739H124.245V19.2059Z" fill="#ededed"/>
<path d="M124.245 28.5H134.441V31.668H124.245V28.5Z" fill="#ededed"/>
<path d="M124.245 23.9084H134.441V26.9774H124.245V23.9084Z" fill="#ededed"/>
<path d="M55.5388 19.2059H59.6968V31.6799H55.5388V19.2059Z" fill="#ededed"/>
<path d="M97.7126 19.2059H101.871V31.6799H97.7126V19.2059Z" fill="#ededed"/>
<path d="M124.245 19.2059H128.403V31.6799H124.245V19.2059Z" fill="#ededed"/>
<path d="M22 0L0 13L9 18.4L22 10.5L30 15.3L17 23.1L22 26.1V32L44 19V13L22 0Z" fill="#ededed"/>
<path d="M22 51V41L44 28V38L22 51Z" fill="#ededed"/>
<path d="M22 26.1L17 23.1V29L22 32V26.1Z" fill="#0f87d6"/>
<path d="M0 13L9 18V33.3L22 41V51L0 38V13Z" fill="#0f87d6"/>
</svg>
