<svg width="96" height="96" viewBox="0 0 96 96" fill="none" xmlns="http://www.w3.org/2000/svg">
<path fill-rule="evenodd" clip-rule="evenodd" d="M71.4508 69.8529L71.3541 85L57.6589 76.2003C54.4821 76.8763 51.2449 77.2111 48 77.1992C29.7746 77.1992 15 67.3549 15 48.7278C15 39.7826 18.4768 31.2038 24.6655 24.8786C30.8542 18.5534 39.2479 15 48 15C56.7521 15 65.1458 18.5534 71.3345 24.8786C77.5232 31.2038 81 39.7826 81 48.7278C81 57.9801 77.3535 65.0645 71.4508 69.8529ZM63.7029 29.1943C58.8906 27.6812 55.1036 30.5303 47.9846 30.644C40.8654 30.5297 37.0774 27.6812 32.2661 29.1943C28.5639 30.3584 23.0066 35.4855 21.8327 44.6185C19.7389 60.9087 27.3859 55.5377 39.5021 53.064C45.1036 51.9406 50.8653 51.9406 56.4669 53.064C68.583 55.5388 76.2302 60.9087 74.1362 44.6185C72.9624 35.4855 67.4051 30.3584 63.7029 29.1943ZM61.554 42.1427C60.3145 41.7699 59.0221 41.615 57.7318 41.6844C55.9091 41.9351 53.6051 42.1123 54.4905 39.7027C56.0859 36.8775 60.0272 36.1512 63.2934 38.0788C66.2758 39.8385 67.6564 43.201 66.6606 45.9227C65.8219 44.3096 63.9977 42.8762 61.554 42.1427ZM38.4754 41.6844C37.1852 41.615 35.8927 41.7699 34.6532 42.1427C32.2104 42.8762 30.3846 44.3096 29.5466 45.9227C28.5508 43.201 29.9323 39.8385 32.9139 38.0788C36.1802 36.1515 40.1214 36.8784 41.7167 39.7027C42.6024 42.1123 40.2984 41.9351 38.4756 41.6844H38.4754Z" fill="#9a0de0"/>
</svg>
