<svg width="96" height="96" viewBox="0 0 96 96" fill="none" xmlns="http://www.w3.org/2000/svg">
<path fill-rule="evenodd" clip-rule="evenodd" d="M70.959 69.853L70.863 85L57.163 76.2C53.9881 76.8762 50.7501 77.2114 47.504 77.2C29.279 77.2 14.504 67.356 14.504 48.729C14.4886 39.8222 17.9578 31.2627 24.17 24.88C27.1998 21.7548 30.8265 19.27 34.8349 17.5731C38.8433 15.8763 43.1517 15.0019 47.5045 15.0019C51.8573 15.0019 56.1657 15.8763 60.1741 17.5731C64.1825 19.27 67.8092 21.7548 70.839 24.88C77.0509 31.2629 80.5197 39.8224 80.504 48.729C80.509 57.98 76.862 65.065 70.959 69.853ZM63.253 60.763C62.4884 61.1085 61.6502 61.2597 60.813 61.203H60.191C59.3538 61.2597 58.5156 61.1085 57.751 60.763C57.5209 60.6377 57.3289 60.4526 57.1952 60.2274C57.0614 60.0021 56.9909 59.745 56.991 59.483V34.763C56.9883 34.5058 57.0581 34.253 57.1926 34.0336C57.327 33.8143 57.5205 33.6373 57.751 33.523C58.5069 33.148 59.3494 32.9823 60.191 33.043H60.813C61.6546 32.9824 62.4971 33.1481 63.253 33.523C63.4834 33.6374 63.6769 33.8144 63.8113 34.0337C63.9457 34.253 64.0156 34.5058 64.013 34.763V59.483C64.0131 59.745 63.9426 60.0021 63.8088 60.2274C63.6751 60.4526 63.4831 60.6377 63.253 60.763ZM51.22 61.2H48.46C47.8215 61.2213 47.1845 61.1265 46.58 60.92C46.3312 60.7964 46.1148 60.6162 45.9481 60.3939C45.7814 60.1717 45.669 59.9135 45.62 59.64L44.768 56.28H36.617L35.74 59.64C35.6947 59.9043 35.5926 60.1557 35.4407 60.3767C35.2887 60.5977 35.0906 60.7831 34.86 60.92C34.2454 61.1419 33.5923 61.2371 32.94 61.2H30.34C29.7223 61.2538 29.1013 61.1434 28.54 60.88C28.399 60.7817 28.2849 60.6497 28.208 60.496C28.1312 60.3423 28.094 60.1718 28.1 60C28.1038 59.7128 28.158 59.4285 28.26 59.16C28.34 58.84 28.4333 58.5067 28.54 58.16L35.7 34.96C35.766 34.6408 35.8957 34.3381 36.0812 34.0701C36.2668 33.8021 36.5044 33.5742 36.78 33.4C37.3959 33.1274 38.0674 33.0041 38.74 33.04H42.82C43.4929 32.9982 44.1658 33.1218 44.78 33.4C45.0556 33.5742 45.2932 33.8021 45.4788 34.0701C45.6643 34.3381 45.794 34.6408 45.86 34.96L53.06 58.16C53.1869 58.4865 53.2938 58.8205 53.38 59.16C53.4572 59.4334 53.4976 59.7159 53.5 60C53.5045 60.176 53.4625 60.35 53.3782 60.5045C53.2939 60.659 53.1704 60.7885 53.02 60.88C52.4607 61.1496 51.838 61.2603 51.22 61.2ZM41.42 43.08L41.1 41.8C40.9933 41.3733 40.9 40.9467 40.82 40.52H40.66C40.58 40.9467 40.4867 41.3733 40.38 41.8L40.06 43.08L38.2 50.2H43.223L41.42 43.08Z" fill="#a807ed"/>
</svg>
