<svg width="96" height="96" viewBox="0 0 96 96" fill="none" xmlns="http://www.w3.org/2000/svg">
<path fill-rule="evenodd" clip-rule="evenodd" d="M74.0647 68.464V84.6723L59.2475 77.601C55.6083 78.7461 51.8151 79.3262 48 79.3211C28.7304 79.3211 13.1094 64.8243 13.1094 46.9417C13.1094 29.0591 28.7304 14.5625 48 14.5625C67.2696 14.5625 82.8906 29.0591 82.8906 46.9417C82.8906 55.2046 79.5538 62.7428 74.0647 68.464ZM67.0573 61.1268C66.9025 61.3875 66.6802 61.6016 66.4139 61.7466C65.5289 62.1465 64.5587 62.3214 63.5898 62.2557H62.87C61.901 62.3214 60.9309 62.1465 60.0459 61.7466C59.7796 61.6015 59.5574 61.3874 59.4026 61.1267C59.2478 60.866 59.1661 60.5683 59.1661 60.2651V31.6539C59.1629 31.3562 59.2438 31.0635 59.3994 30.8096C59.555 30.5558 59.7791 30.3509 60.0459 30.2186C60.9208 29.7847 61.8959 29.5929 62.87 29.6631H63.5898C64.5638 29.5929 65.539 29.7847 66.4139 30.2186C66.6804 30.3512 66.9043 30.5561 67.0599 30.8099C67.2155 31.0637 67.2965 31.3562 67.2936 31.6539V60.2651C67.2936 60.5684 67.212 60.866 67.0573 61.1268ZM54.5703 61.8819C53.9227 62.1942 53.2016 62.3224 52.4859 62.2523H49.2914C48.5528 62.277 47.8158 62.1672 47.1164 61.9283C46.8287 61.785 46.5784 61.5764 46.3857 61.3192C46.1929 61.062 46.063 60.7632 46.0062 60.4468L45.02 56.5579H35.5844L34.5694 60.4468C34.5169 60.7529 34.3985 61.0439 34.2225 61.2997C34.0464 61.5555 33.8169 61.77 33.5498 61.9283C32.8386 62.1851 32.0827 62.2953 31.3277 62.2523H28.3201C27.6048 62.3148 26.8857 62.187 26.2357 61.8819C26.0724 61.7681 25.9401 61.6151 25.8512 61.437C25.7622 61.2589 25.7193 61.0613 25.7264 60.8624C25.731 60.53 25.7937 60.2009 25.9117 59.8902C26.0042 59.5198 26.1122 59.134 26.2357 58.7327L34.5229 31.8807C34.5993 31.5112 34.7493 31.1609 34.9641 30.8507C35.1788 30.5405 35.4539 30.2768 35.7729 30.0752C36.4857 29.7597 37.263 29.6168 38.0414 29.6584H42.7637C43.5426 29.6101 44.3214 29.7532 45.0323 30.0752C45.3512 30.2768 45.6262 30.5406 45.8409 30.8508C46.0557 31.161 46.2058 31.5113 46.2822 31.8807L54.6156 58.7338C54.7625 59.1117 54.8861 59.4983 54.9858 59.8913C55.0753 60.2077 55.122 60.5347 55.1247 60.8635C55.1301 61.067 55.0816 61.2683 54.9843 61.4472C54.8869 61.626 54.7441 61.7759 54.5703 61.8819ZM41.1442 41.2801L40.7738 39.7986C40.6504 39.3047 40.5424 38.8109 40.4498 38.3171H40.2645C40.1719 38.8107 40.0639 39.3046 39.9405 39.7986L39.5701 41.2801L37.4177 49.5209H43.2313L41.1442 41.2801Z" fill="#d121d7"/>
</svg>
