<svg width="96" height="96" viewBox="0 0 96 96" fill="none" xmlns="http://www.w3.org/2000/svg">
<path fill-rule="evenodd" clip-rule="evenodd" d="M79.7725 39.6641V56.9535H88V66.8494H70.2682V30H88V39.6652H79.7725V39.6641ZM50.1008 66.9319V57.2621C52.188 56.8924 54.0764 55.8156 55.4363 54.2198C56.7961 52.624 57.5411 50.6106 57.5411 48.5311C57.5411 46.4517 56.7961 44.4383 55.4363 42.8425C54.0764 41.2467 52.188 40.1699 50.1008 39.8002V30.1313C54.8001 30.5272 59.177 32.6372 62.3662 36.0442C65.5554 39.4512 67.3249 43.9073 67.3249 48.5316C67.3249 53.1559 65.5554 57.612 62.3662 61.019C59.177 64.426 54.8001 66.536 50.1008 66.9319ZM46.8069 39.8018C44.7211 40.1728 42.8344 41.25 41.4758 42.8454C40.1173 44.4409 39.3731 46.4533 39.3731 48.5316C39.3731 50.6099 40.1173 52.6223 41.4758 54.2178C42.8344 55.8132 44.7211 56.8904 46.8069 57.2614V66.9317C42.1081 66.5351 37.732 64.4249 34.5433 61.018C31.3547 57.6111 29.5856 53.1555 29.5856 48.5316C29.5856 43.9077 31.3547 39.4521 34.5433 36.0452C37.732 32.6383 42.1081 30.5281 46.8069 30.1315V39.8018ZM8 39.6576C10.3925 39.6696 12.6828 40.6098 14.3703 42.2726C16.0578 43.9355 17.005 46.1858 17.005 48.5315C17.005 50.8772 16.0578 53.1275 14.3703 54.7903C12.6828 56.4532 10.3925 57.3934 8 57.4054V67C12.9959 67 17.7872 65.0542 21.3199 61.5907C24.8525 58.1272 26.8371 53.4297 26.8371 48.5316C26.8371 43.6335 24.8525 38.936 21.3199 35.4725C17.7872 32.009 12.9959 30.0632 8 30.0632V39.6576Z" fill="#D8B089"/>
</svg>
