<svg width="96" height="96" viewBox="0 0 96 96" fill="none" xmlns="http://www.w3.org/2000/svg">
<path fill-rule="evenodd" clip-rule="evenodd" d="M17 46.006C17.1695 62.0627 31.2073 75.0304 48.4992 75.0304C51.5099 75.0336 54.5074 74.6335 57.4105 73.8409L70.2516 82L70.2602 66.9434C76.2363 61.6075 80 54.0282 80 45.7118C80.0011 41.1964 78.8908 36.7492 76.7658 32.7575L37.33 40.9823C38.9759 45.0971 41.2989 48.1937 44.2991 50.2721C47.2846 52.2805 50.7469 52.8739 54.6861 52.0523C59.889 50.9672 66.8408 46.9593 75.5415 40.0287L79.0008 43.505L78.9214 43.6377C68.0197 61.8069 57.7666 64.8943 50.9502 66.3158C45.5244 67.4475 40.3674 67.2807 35.4792 65.8154C30.6505 64.2647 26.5657 61.6451 23.2251 57.9568C20.2326 54.5633 18.1575 50.5797 17 46.006ZM36.2088 24.1149C35.0028 26.4858 34.7767 29.8217 35.5307 34.1226L56.8248 29.6814C55.3128 25.4655 53.5247 22.5132 51.4604 20.8243C46.8294 16.8577 38.2141 20.0054 36.2088 24.1149Z" fill="#08c6d4"/>
</svg>
