<svg width="96" height="96" viewBox="0 0 96 96" fill="none" xmlns="http://www.w3.org/2000/svg">
<path fill-rule="evenodd" clip-rule="evenodd" d="M66.5291 75.3099C64.3123 71.1027 58.993 69.3792 54.3887 71.4691C50.5127 73.228 48.3362 77.1471 48.7626 80.9909C48.5091 80.9966 48.2549 80.9996 48.0002 81C29.7749 80.9994 15 66.2248 15 47.9997C15 29.7746 29.7749 15 48.0002 15C66.2255 15 81 29.7744 81 47.9997C81 59.3564 75.2629 69.3729 66.5291 75.3099ZM66.073 33.4191C63.3735 27.9492 59.5609 24.598 54.6353 23.3654C49.7097 22.1328 44.3806 22.9314 38.6478 25.7614C34.3343 27.8903 31.0879 30.4573 28.9086 33.4624C26.7294 36.4675 25.5718 39.6552 25.4357 43.0256C25.2996 46.3964 26.076 49.6597 27.7651 52.8156L42.3612 45.612C41.6349 44.14 41.4387 42.7815 41.7726 41.5364C42.1064 40.2914 43.01 39.3058 44.4832 38.5797C45.7974 37.9315 47.0374 37.8264 48.2033 38.2645C49.3679 38.7046 50.3009 39.6341 51.0021 41.0531C52.0408 43.1575 51.8143 45.0843 50.3227 46.8337C48.8311 48.5831 46.2975 50.3406 42.7217 52.1061L37.041 54.9096L45.2632 70.3766L58.9123 63.6405L56.4643 57.6863C61.6198 55.0115 65.1007 51.4949 66.907 47.1364C68.7133 42.7779 68.4353 38.2055 66.073 33.4191Z" fill="#ff5429"/>
</svg>
