<svg width="96" height="96" viewBox="0 0 96 96" fill="none" xmlns="http://www.w3.org/2000/svg">
<path fill-rule="evenodd" clip-rule="evenodd" d="M83.4419 71H70.3466C69.1705 71 67.9142 70.0511 67.5403 68.8811C67.5403 68.8811 67.2018 67.8879 66.8939 66.8567C66.4226 65.2787 66.2551 64.4795 66.8611 62.5796C68.3229 57.9882 71.8618 46.9726 73.6945 41.1847C74.199 39.5913 75.5411 39.5922 76.1098 41.3771C78.8332 49.9236 84.8944 68.8807 84.8944 68.8807C85.2683 70.0511 84.618 71 83.4419 71ZM56.6505 68.8811C56.2766 70.0511 55.0203 71 53.8443 71H40.7489C39.5729 71 38.9226 70.0511 39.2965 68.8811L53.274 25.1189C53.6477 23.9486 54.904 23 56.0801 23H69.1754C70.3515 23 71.0018 23.9486 70.6281 25.1189L56.6505 68.8811ZM30.4598 68.8811C30.0859 70.0511 28.8296 71 27.6535 71H14.5582C13.3821 71 12.7318 70.0511 13.1055 68.8811L27.0833 25.1189C27.457 23.9486 28.7133 23 29.8893 23H42.9847C44.1607 23 44.811 23.9486 44.4373 25.1189L30.4598 68.8811Z" fill="#1eba64"/>
</svg>
