<svg width="288" height="432" viewBox="0 0 288 432" fill="none" xmlns="http://www.w3.org/2000/svg">
<mask id="mask0_21_730" style="mask-type:luminance" maskUnits="userSpaceOnUse" x="0" y="0" width="288" height="432">
<path d="M288 432L288 1.25889e-05L3.05176e-05 0L1.16343e-05 432L288 432Z" fill="white"/>
</mask>
<g mask="url(#mask0_21_730)">
<path d="M290.2 18.4L279.4 37.2L301.1 37.2L290.2 18.4Z" fill="white" fill-opacity="0.33"/>
<path d="M290.2 18.4L301.1 -0.499987L279.4 -0.499988L290.2 18.4Z" fill="white" fill-opacity="0.33"/>
<path d="M279.4 -0.499988L268.5 18.4L290.2 18.4L279.4 -0.499988Z" fill="white" fill-opacity="0.66"/>
<path d="M279.4 37.2L290.2 18.4L268.5 18.4L279.4 37.2Z" fill="white" fill-opacity="0.66"/>
<path d="M290.2 56L279.4 74.8L301.1 74.8L290.2 56Z" fill="white" fill-opacity="0.33"/>
<path d="M290.2 56L301.1 37.2L279.4 37.2L290.2 56Z" fill="white"/>
<path d="M279.4 74.8L290.2 56L268.5 56L279.4 74.8Z" fill="white" fill-opacity="0.33"/>
<path d="M290.2 93.6L279.4 112.4L301.1 112.4L290.2 93.6Z" fill="white" fill-opacity="0.33"/>
<path d="M290.2 93.6L301.1 74.8L279.4 74.8L290.2 93.6Z" fill="white"/>
<path d="M279.4 74.8L268.5 93.6L290.2 93.6L279.4 74.8Z" fill="white" fill-opacity="0.66"/>
<path d="M290.2 131.3L279.4 150.1L301.1 150.1L290.2 131.3Z" fill="white" fill-opacity="0.66"/>
<path d="M290.2 131.3L301.1 112.4L279.4 112.4L290.2 131.3Z" fill="white"/>
<path d="M279.4 112.4L268.5 131.3L290.2 131.3L279.4 112.4Z" fill="white" fill-opacity="0.66"/>
<path d="M279.4 150.1L290.2 131.3L268.5 131.3L279.4 150.1Z" fill="white" fill-opacity="0.33"/>
<path d="M290.2 168.9L301.1 150.1L279.4 150.1L290.2 168.9Z" fill="white"/>
<path d="M279.4 187.7L290.2 168.9L268.5 168.9L279.4 187.7Z" fill="white" fill-opacity="0.66"/>
<path d="M290.2 206.5L279.4 225.3L301.1 225.3L290.2 206.5Z" fill="white" fill-opacity="0.66"/>
<path d="M290.2 206.5L301.1 187.7L279.4 187.7L290.2 206.5Z" fill="white" fill-opacity="0.66"/>
<path d="M279.4 187.7L268.5 206.5L290.2 206.5L279.4 187.7Z" fill="white" fill-opacity="0.66"/>
<path d="M279.4 225.3L290.2 206.5L268.5 206.5L279.4 225.3Z" fill="white" fill-opacity="0.66"/>
<path d="M290.2 244.2L279.4 263L301.1 263L290.2 244.2Z" fill="white" fill-opacity="0.66"/>
<path d="M290.2 244.1L301.1 225.3L279.4 225.3L290.2 244.1Z" fill="white" fill-opacity="0.66"/>
<path d="M279.4 225.3L268.5 244.1L290.2 244.1L279.4 225.3Z" fill="white"/>
<path d="M279.4 263L290.2 244.1L268.5 244.1L279.4 263Z" fill="white" fill-opacity="0.66"/>
<path d="M290.2 281.8L279.4 300.6L301.1 300.6L290.2 281.8Z" fill="white" fill-opacity="0.66"/>
<path d="M290.2 281.8L301.1 263L279.4 263L290.2 281.8Z" fill="white" fill-opacity="0.33"/>
<path d="M279.4 263L268.5 281.8L290.2 281.8L279.4 263Z" fill="white" fill-opacity="0.66"/>
<path d="M279.4 300.6L290.2 281.8L268.5 281.8L279.4 300.6Z" fill="white"/>
<path d="M290.2 319.4L279.4 338.2L301.1 338.2L290.2 319.4Z" fill="white" fill-opacity="0.33"/>
<path d="M290.2 319.4L301.1 300.6L279.4 300.6L290.2 319.4Z" fill="white"/>
<path d="M279.4 300.6L268.5 319.4L290.2 319.4L279.4 300.6Z" fill="white"/>
<path d="M279.4 338.2L290.2 319.4L268.5 319.4L279.4 338.2Z" fill="white" fill-opacity="0.66"/>
<path d="M290.2 357.1L279.4 375.9L301.1 375.9L290.2 357.1Z" fill="white" fill-opacity="0.66"/>
<path d="M290.2 357L301.1 338.2L279.4 338.2L290.2 357Z" fill="white" fill-opacity="0.66"/>
<path d="M279.4 338.2L268.5 357L290.2 357L279.4 338.2Z" fill="white"/>
<path d="M279.4 375.9L290.2 357L268.5 357L279.4 375.9Z" fill="white" fill-opacity="0.33"/>
<path d="M290.2 394.7L279.4 413.5L301.1 413.5L290.2 394.7Z" fill="white" fill-opacity="0.66"/>
<path d="M290.2 394.7L301.1 375.9L279.4 375.9L290.2 394.7Z" fill="white" fill-opacity="0.66"/>
<path d="M279.4 375.9L268.5 394.7L290.2 394.7L279.4 375.9Z" fill="white" fill-opacity="0.66"/>
<path d="M279.4 413.5L290.2 394.7L268.5 394.7L279.4 413.5Z" fill="white" fill-opacity="0.33"/>
<path d="M290.2 432.3L301.1 413.5L279.4 413.5L290.2 432.3Z" fill="white" fill-opacity="0.33"/>
<path d="M257.6 -0.399989L246.8 18.4L268.5 18.4L257.6 -0.399989Z" fill="white"/>
<path d="M246.8 18.4L257.6 -0.499989L235.9 -0.49999L246.8 18.4Z" fill="white" fill-opacity="0.33"/>
<path d="M268.5 18.4L257.6 37.2L279.4 37.2L268.5 18.4Z" fill="white"/>
<path d="M257.6 37.2L246.8 56L268.5 56L257.6 37.2Z" fill="white" fill-opacity="0.33"/>
<path d="M268.5 56L279.4 37.2L257.6 37.2L268.5 56Z" fill="white"/>
<path d="M257.6 37.2L268.5 18.4L246.8 18.4L257.6 37.2Z" fill="white" fill-opacity="0.66"/>
<path d="M246.8 18.4L235.9 37.2L257.6 37.2L246.8 18.4Z" fill="white"/>
<path d="M246.8 56L257.6 37.2L235.9 37.2L246.8 56Z" fill="white" fill-opacity="0.33"/>
<path d="M257.6 74.8L246.8 93.6L268.5 93.6L257.6 74.8Z" fill="white" fill-opacity="0.66"/>
<path d="M268.5 93.6L279.4 74.8L257.6 74.8L268.5 93.6Z" fill="white"/>
<path d="M257.6 74.8L268.5 56L246.8 56L257.6 74.8Z" fill="white"/>
<path d="M246.8 93.6L257.6 74.8L235.9 74.8L246.8 93.6Z" fill="white" fill-opacity="0.66"/>
<path d="M268.5 93.6L257.6 112.4L279.4 112.4L268.5 93.6Z" fill="white" fill-opacity="0.66"/>
<path d="M268.5 131.3L279.4 112.4L257.6 112.4L268.5 131.3Z" fill="white"/>
<path d="M257.6 112.4L268.5 93.6L246.8 93.6L257.6 112.4Z" fill="white" fill-opacity="0.66"/>
<path d="M246.8 93.6L235.9 112.4L257.6 112.4L246.8 93.6Z" fill="white"/>
<path d="M246.8 131.3L257.6 112.4L235.9 112.4L246.8 131.3Z" fill="white"/>
<path d="M268.5 131.3L257.6 150.1L279.4 150.1L268.5 131.3Z" fill="white" fill-opacity="0.66"/>
<path d="M257.6 150.1L246.8 168.9L268.5 168.9L257.6 150.1Z" fill="white"/>
<path d="M268.5 168.9L279.4 150.1L257.6 150.1L268.5 168.9Z" fill="white" fill-opacity="0.33"/>
<path d="M257.6 150.1L268.5 131.3L246.8 131.3L257.6 150.1Z" fill="white" fill-opacity="0.66"/>
<path d="M246.8 131.3L235.9 150.1L257.6 150.1L246.8 131.3Z" fill="white"/>
<path d="M246.8 168.9L257.6 150.1L235.9 150.1L246.8 168.9Z" fill="white"/>
<path d="M268.5 168.9L257.6 187.7L279.4 187.7L268.5 168.9Z" fill="white"/>
<path d="M268.5 206.5L279.4 187.7L257.6 187.7L268.5 206.5Z" fill="white"/>
<path d="M257.6 187.7L268.5 168.9L246.8 168.9L257.6 187.7Z" fill="white"/>
<path d="M246.8 168.9L235.9 187.7L257.6 187.7L246.8 168.9Z" fill="white"/>
<path d="M246.8 206.5L257.6 187.7L235.9 187.7L246.8 206.5Z" fill="white" fill-opacity="0.66"/>
<path d="M268.5 206.5L257.6 225.3L279.4 225.3L268.5 206.5Z" fill="white" fill-opacity="0.66"/>
<path d="M257.6 225.3L246.8 244.2L268.5 244.2L257.6 225.3Z" fill="white" fill-opacity="0.33"/>
<path d="M268.5 244.1L279.4 225.3L257.6 225.3L268.5 244.1Z" fill="white"/>
<path d="M257.6 225.3L268.5 206.5L246.8 206.5L257.6 225.3Z" fill="white"/>
<path d="M246.8 206.5L235.9 225.3L257.6 225.3L246.8 206.5Z" fill="white" fill-opacity="0.66"/>
<path d="M246.8 244.1L257.6 225.3L235.9 225.3L246.8 244.1Z" fill="white" fill-opacity="0.66"/>
<path d="M268.5 244.1L257.6 263L279.4 263L268.5 244.1Z" fill="white" fill-opacity="0.66"/>
<path d="M268.5 281.8L279.4 263L257.6 263L268.5 281.8Z" fill="white" fill-opacity="0.66"/>
<path d="M257.6 263L268.5 244.1L246.8 244.1L257.6 263Z" fill="white"/>
<path d="M246.8 244.1L235.9 263L257.6 263L246.8 244.1Z" fill="white"/>
<path d="M257.6 300.6L246.8 319.4L268.5 319.4L257.6 300.6Z" fill="white"/>
<path d="M268.5 319.4L279.4 300.6L257.6 300.6L268.5 319.4Z" fill="white"/>
<path d="M246.8 281.8L235.9 300.6L257.6 300.6L246.8 281.8Z" fill="white" fill-opacity="0.66"/>
<path d="M268.5 319.4L257.6 338.2L279.4 338.2L268.5 319.4Z" fill="white"/>
<path d="M257.6 338.2L246.8 357.1L268.5 357.1L257.6 338.2Z" fill="white" fill-opacity="0.66"/>
<path d="M268.5 357L279.4 338.2L257.6 338.2L268.5 357Z" fill="white"/>
<path d="M257.6 338.2L268.5 319.4L246.8 319.4L257.6 338.2Z" fill="white" fill-opacity="0.66"/>
<path d="M246.8 319.4L235.9 338.2L257.6 338.2L246.8 319.4Z" fill="white" fill-opacity="0.66"/>
<path d="M246.8 357L257.6 338.2L235.9 338.2L246.8 357Z" fill="white"/>
<path d="M268.5 357L257.6 375.9L279.4 375.9L268.5 357Z" fill="white" fill-opacity="0.33"/>
<path d="M268.5 394.7L279.4 375.9L257.6 375.9L268.5 394.7Z" fill="white"/>
<path d="M268.5 394.7L257.6 413.5L279.4 413.5L268.5 394.7Z" fill="white"/>
<path d="M257.6 413.5L246.8 432.3L268.5 432.3L257.6 413.5Z" fill="white" fill-opacity="0.66"/>
<path d="M268.5 432.3L279.4 413.5L257.6 413.5L268.5 432.3Z" fill="white" fill-opacity="0.66"/>
<path d="M257.6 413.5L268.5 394.7L246.8 394.7L257.6 413.5Z" fill="white"/>
<path d="M246.8 394.7L235.9 413.5L257.6 413.5L246.8 394.7Z" fill="white"/>
<path d="M246.8 432.3L257.6 413.5L235.9 413.5L246.8 432.3Z" fill="white" fill-opacity="0.66"/>
<path d="M235.9 -0.49999L225 18.4L246.8 18.4L235.9 -0.49999Z" fill="white" fill-opacity="0.33"/>
<path d="M225 18.4L235.9 -0.49999L214.2 -0.499991L225 18.4Z" fill="white" fill-opacity="0.66"/>
<path d="M214.2 -0.499991L203.3 18.4L225 18.4L214.2 -0.499991Z" fill="white" fill-opacity="0.66"/>
<path d="M214.2 37.2L225 18.4L203.3 18.4L214.2 37.2Z" fill="white" fill-opacity="0.66"/>
<path d="M235.9 37.2L225 56L246.8 56L235.9 37.2Z" fill="white" fill-opacity="0.66"/>
<path d="M225 56L214.2 74.8L235.9 74.8L225 56Z" fill="white" fill-opacity="0.33"/>
<path d="M235.9 74.8L246.8 56L225 56L235.9 74.8Z" fill="white"/>
<path d="M225 56L235.9 37.2L214.2 37.2L225 56Z" fill="white" fill-opacity="0.66"/>
<path d="M214.2 37.2L203.3 56L225 56L214.2 37.2Z" fill="white" fill-opacity="0.33"/>
<path d="M214.2 74.8L225 56L203.3 56L214.2 74.8Z" fill="white" fill-opacity="0.66"/>
<path d="M235.9 74.8L225 93.6L246.8 93.6L235.9 74.8Z" fill="white" fill-opacity="0.33"/>
<path d="M225 93.6L214.2 112.4L235.9 112.4L225 93.6Z" fill="white"/>
<path d="M235.9 112.4L246.8 93.6L225 93.6L235.9 112.4Z" fill="white"/>
<path d="M225 93.6L235.9 74.8L214.2 74.8L225 93.6Z" fill="white" fill-opacity="0.33"/>
<path d="M214.2 74.8L203.3 93.6L225 93.6L214.2 74.8Z" fill="white"/>
<path d="M214.2 112.4L225 93.6L203.3 93.6L214.2 112.4Z" fill="white" fill-opacity="0.66"/>
<path d="M235.9 112.4L225 131.3L246.8 131.3L235.9 112.4Z" fill="white" fill-opacity="0.33"/>
<path d="M225 131.3L214.2 150.1L235.9 150.1L225 131.3Z" fill="white"/>
<path d="M235.9 150.1L246.8 131.3L225 131.3L235.9 150.1Z" fill="white" fill-opacity="0.66"/>
<path d="M225 131.3L235.9 112.4L214.2 112.4L225 131.3Z" fill="white"/>
<path d="M214.2 112.4L203.3 131.3L225 131.3L214.2 112.4Z" fill="white" fill-opacity="0.66"/>
<path d="M214.2 150.1L225 131.3L203.3 131.3L214.2 150.1Z" fill="white" fill-opacity="0.66"/>
<path d="M235.9 150.1L225 168.9L246.8 168.9L235.9 150.1Z" fill="white" fill-opacity="0.66"/>
<path d="M225 168.9L214.2 187.7L235.9 187.7L225 168.9Z" fill="white" fill-opacity="0.66"/>
<path d="M235.9 187.7L246.8 168.9L225 168.9L235.9 187.7Z" fill="white"/>
<path d="M225 168.9L235.9 150.1L214.2 150.1L225 168.9Z" fill="white" fill-opacity="0.66"/>
<path d="M214.2 187.7L225 168.9L203.3 168.9L214.2 187.7Z" fill="white" fill-opacity="0.66"/>
<path d="M235.9 187.7L225 206.5L246.8 206.5L235.9 187.7Z" fill="white" fill-opacity="0.33"/>
<path d="M225 206.5L214.2 225.3L235.9 225.3L225 206.5Z" fill="white" fill-opacity="0.66"/>
<path d="M235.9 225.3L246.8 206.5L225 206.5L235.9 225.3Z" fill="white" fill-opacity="0.33"/>
<path d="M225 206.5L235.9 187.7L214.2 187.7L225 206.5Z" fill="white"/>
<path d="M235.9 225.3L225 244.1L246.8 244.1L235.9 225.3Z" fill="white"/>
<path d="M225 244.2L214.2 263L235.9 263L225 244.2Z" fill="white"/>
<path d="M235.9 263L246.8 244.1L225 244.1L235.9 263Z" fill="white" fill-opacity="0.66"/>
<path d="M225 244.1L235.9 225.3L214.2 225.3L225 244.1Z" fill="white"/>
<path d="M214.2 225.3L203.3 244.1L225 244.1L214.2 225.3Z" fill="white" fill-opacity="0.66"/>
<path d="M214.2 263L225 244.1L203.3 244.1L214.2 263Z" fill="white"/>
<path d="M235.9 263L225 281.8L246.8 281.8L235.9 263Z" fill="white" fill-opacity="0.66"/>
<path d="M235.9 300.6L246.8 281.8L225 281.8L235.9 300.6Z" fill="white" fill-opacity="0.66"/>
<path d="M225 281.8L235.9 263L214.2 263L225 281.8Z" fill="white" fill-opacity="0.66"/>
<path d="M214.2 263L203.3 281.8L225 281.8L214.2 263Z" fill="white" fill-opacity="0.33"/>
<path d="M214.2 300.6L225 281.8L203.3 281.8L214.2 300.6Z" fill="white" fill-opacity="0.33"/>
<path d="M235.9 300.6L225 319.4L246.8 319.4L235.9 300.6Z" fill="white"/>
<path d="M225 319.4L235.9 300.6L214.2 300.6L225 319.4Z" fill="white" fill-opacity="0.66"/>
<path d="M214.2 300.6L203.3 319.4L225 319.4L214.2 300.6Z" fill="white"/>
<path d="M214.2 338.2L225 319.4L203.3 319.4L214.2 338.2Z" fill="white" fill-opacity="0.33"/>
<path d="M235.9 338.2L225 357L246.8 357L235.9 338.2Z" fill="white" fill-opacity="0.66"/>
<path d="M225 357.1L214.2 375.9L235.9 375.9L225 357.1Z" fill="white" fill-opacity="0.33"/>
<path d="M225 357L235.9 338.2L214.2 338.2L225 357Z" fill="white" fill-opacity="0.66"/>
<path d="M214.2 338.2L203.3 357L225 357L214.2 338.2Z" fill="white" fill-opacity="0.33"/>
<path d="M214.2 375.9L225 357L203.3 357L214.2 375.9Z" fill="white" fill-opacity="0.33"/>
<path d="M235.9 375.9L225 394.7L246.8 394.7L235.9 375.9Z" fill="white" fill-opacity="0.66"/>
<path d="M235.9 413.5L246.8 394.7L225 394.7L235.9 413.5Z" fill="white"/>
<path d="M225 394.7L235.9 375.9L214.2 375.9L225 394.7Z" fill="white"/>
<path d="M214.2 375.9L203.3 394.7L225 394.7L214.2 375.9Z" fill="white" fill-opacity="0.33"/>
<path d="M214.2 413.5L225 394.7L203.3 394.7L214.2 413.5Z" fill="white" fill-opacity="0.33"/>
<path d="M235.9 413.5L225 432.3L246.8 432.3L235.9 413.5Z" fill="white"/>
<path d="M225 432.3L235.9 413.5L214.2 413.5L225 432.3Z" fill="white" fill-opacity="0.33"/>
<path d="M192.4 -0.399991L181.6 18.4L203.3 18.4L192.4 -0.399991Z" fill="white" fill-opacity="0.66"/>
<path d="M203.3 18.4L214.2 -0.499991L192.4 -0.499992L203.3 18.4Z" fill="white" fill-opacity="0.66"/>
<path d="M181.6 18.4L192.4 -0.499992L170.7 -0.499993L181.6 18.4Z" fill="white" fill-opacity="0.33"/>
<path d="M203.3 18.4L192.4 37.2L214.2 37.2L203.3 18.4Z" fill="white" fill-opacity="0.33"/>
<path d="M192.4 37.2L181.6 56L203.3 56L192.4 37.2Z" fill="white" fill-opacity="0.66"/>
<path d="M181.6 18.4L170.7 37.2L192.4 37.2L181.6 18.4Z" fill="white"/>
<path d="M181.6 56L192.4 37.2L170.7 37.2L181.6 56Z" fill="white" fill-opacity="0.66"/>
<path d="M203.3 56L192.4 74.8L214.2 74.8L203.3 56Z" fill="white" fill-opacity="0.66"/>
<path d="M192.4 74.8L181.6 93.6L203.3 93.6L192.4 74.8Z" fill="white" fill-opacity="0.66"/>
<path d="M203.3 93.6L214.2 74.8L192.4 74.8L203.3 93.6Z" fill="white"/>
<path d="M192.4 74.8L203.3 56L181.6 56L192.4 74.8Z" fill="white" fill-opacity="0.66"/>
<path d="M181.6 93.6L192.4 74.8L170.7 74.8L181.6 93.6Z" fill="white" fill-opacity="0.66"/>
<path d="M203.3 93.6L192.4 112.4L214.2 112.4L203.3 93.6Z" fill="white" fill-opacity="0.66"/>
<path d="M192.4 112.4L181.6 131.3L203.3 131.3L192.4 112.4Z" fill="white" fill-opacity="0.66"/>
<path d="M203.3 131.3L214.2 112.4L192.4 112.4L203.3 131.3Z" fill="white" fill-opacity="0.66"/>
<path d="M192.4 112.4L203.3 93.6L181.6 93.6L192.4 112.4Z" fill="white" fill-opacity="0.66"/>
<path d="M181.6 93.6L170.7 112.4L192.4 112.4L181.6 93.6Z" fill="white" fill-opacity="0.33"/>
<path d="M192.4 150.1L181.6 168.9L203.3 168.9L192.4 150.1Z" fill="white" fill-opacity="0.66"/>
<path d="M203.3 168.9L214.2 150.1L192.4 150.1L203.3 168.9Z" fill="white" fill-opacity="0.66"/>
<path d="M192.4 150.1L203.3 131.3L181.6 131.3L192.4 150.1Z" fill="white" fill-opacity="0.66"/>
<path d="M181.6 131.3L170.7 150.1L192.4 150.1L181.6 131.3Z" fill="white"/>
<path d="M181.6 168.9L192.4 150.1L170.7 150.1L181.6 168.9Z" fill="white"/>
<path d="M203.3 168.9L192.4 187.7L214.2 187.7L203.3 168.9Z" fill="white" fill-opacity="0.66"/>
<path d="M192.4 187.7L181.6 206.5L203.3 206.5L192.4 187.7Z" fill="white"/>
<path d="M203.3 206.5L214.2 187.7L192.4 187.7L203.3 206.5Z" fill="white" fill-opacity="0.33"/>
<path d="M192.4 187.7L203.3 168.9L181.6 168.9L192.4 187.7Z" fill="white"/>
<path d="M181.6 168.9L170.7 187.7L192.4 187.7L181.6 168.9Z" fill="white"/>
<path d="M181.6 206.5L192.4 187.7L170.7 187.7L181.6 206.5Z" fill="white" fill-opacity="0.66"/>
<path d="M203.3 206.5L192.4 225.3L214.2 225.3L203.3 206.5Z" fill="white"/>
<path d="M192.4 225.3L181.6 244.2L203.3 244.2L192.4 225.3Z" fill="white"/>
<path d="M203.3 244.1L214.2 225.3L192.4 225.3L203.3 244.1Z" fill="white" fill-opacity="0.66"/>
<path d="M181.6 244.1L192.4 225.3L170.7 225.3L181.6 244.1Z" fill="white" fill-opacity="0.33"/>
<path d="M203.3 244.1L192.4 263L214.2 263L203.3 244.1Z" fill="white" fill-opacity="0.66"/>
<path d="M192.4 263L181.6 281.8L203.3 281.8L192.4 263Z" fill="white" fill-opacity="0.66"/>
<path d="M203.3 281.8L214.2 263L192.4 263L203.3 281.8Z" fill="white" fill-opacity="0.66"/>
<path d="M192.4 263L203.3 244.1L181.6 244.1L192.4 263Z" fill="white"/>
<path d="M181.6 244.1L170.7 263L192.4 263L181.6 244.1Z" fill="white" fill-opacity="0.33"/>
<path d="M181.6 281.8L192.4 263L170.7 263L181.6 281.8Z" fill="white" fill-opacity="0.33"/>
<path d="M203.3 281.8L192.4 300.6L214.2 300.6L203.3 281.8Z" fill="white"/>
<path d="M192.4 300.6L181.6 319.4L203.3 319.4L192.4 300.6Z" fill="white" fill-opacity="0.33"/>
<path d="M203.3 319.4L214.2 300.6L192.4 300.6L203.3 319.4Z" fill="white" fill-opacity="0.66"/>
<path d="M181.6 281.8L170.7 300.6L192.4 300.6L181.6 281.8Z" fill="white" fill-opacity="0.66"/>
<path d="M181.6 319.4L192.4 300.6L170.7 300.6L181.6 319.4Z" fill="white" fill-opacity="0.66"/>
<path d="M203.3 319.4L192.4 338.2L214.2 338.2L203.3 319.4Z" fill="white" fill-opacity="0.66"/>
<path d="M192.4 338.2L181.6 357.1L203.3 357.1L192.4 338.2Z" fill="white" fill-opacity="0.33"/>
<path d="M203.3 357L214.2 338.2L192.4 338.2L203.3 357Z" fill="white" fill-opacity="0.66"/>
<path d="M192.4 338.2L203.3 319.4L181.6 319.4L192.4 338.2Z" fill="white"/>
<path d="M181.6 319.4L170.7 338.2L192.4 338.2L181.6 319.4Z" fill="white" fill-opacity="0.33"/>
<path d="M181.6 357L192.4 338.2L170.7 338.2L181.6 357Z" fill="white" fill-opacity="0.33"/>
<path d="M203.3 357L192.4 375.9L214.2 375.9L203.3 357Z" fill="white"/>
<path d="M192.4 375.9L181.6 394.7L203.3 394.7L192.4 375.9Z" fill="white"/>
<path d="M203.3 394.7L214.2 375.9L192.4 375.9L203.3 394.7Z" fill="white" fill-opacity="0.66"/>
<path d="M192.4 375.9L203.3 357L181.6 357L192.4 375.9Z" fill="white" fill-opacity="0.33"/>
<path d="M181.6 394.7L192.4 375.9L170.7 375.9L181.6 394.7Z" fill="white" fill-opacity="0.66"/>
<path d="M203.3 394.7L192.4 413.5L214.2 413.5L203.3 394.7Z" fill="white"/>
<path d="M192.4 413.5L181.6 432.3L203.3 432.3L192.4 413.5Z" fill="white" fill-opacity="0.66"/>
<path d="M203.3 432.3L214.2 413.5L192.4 413.5L203.3 432.3Z" fill="white" fill-opacity="0.66"/>
<path d="M192.4 413.5L203.3 394.7L181.6 394.7L192.4 413.5Z" fill="white" fill-opacity="0.33"/>
<path d="M181.6 394.7L170.7 413.5L192.4 413.5L181.6 394.7Z" fill="white"/>
<path d="M181.6 432.3L192.4 413.5L170.7 413.5L181.6 432.3Z" fill="white" fill-opacity="0.33"/>
<path d="M159.9 18.4L149 37.2L170.7 37.2L159.9 18.4Z" fill="white" fill-opacity="0.66"/>
<path d="M170.7 37.2L181.6 18.4L159.9 18.4L170.7 37.2Z" fill="white"/>
<path d="M149 -0.499994L138.1 18.4L159.9 18.4L149 -0.499994Z" fill="white" fill-opacity="0.66"/>
<path d="M149 37.2L159.9 18.4L138.1 18.4L149 37.2Z" fill="white"/>
<path d="M170.7 37.2L159.9 56L181.6 56L170.7 37.2Z" fill="white"/>
<path d="M159.9 56L149 74.8L170.7 74.8L159.9 56Z" fill="white" fill-opacity="0.66"/>
<path d="M170.7 74.8L181.6 56L159.9 56L170.7 74.8Z" fill="white" fill-opacity="0.66"/>
<path d="M159.9 56L170.7 37.2L149 37.2L159.9 56Z" fill="white" fill-opacity="0.33"/>
<path d="M149 37.2L138.1 56L159.9 56L149 37.2Z" fill="white" fill-opacity="0.33"/>
<path d="M149 74.8L159.9 56L138.1 56L149 74.8Z" fill="white" fill-opacity="0.33"/>
<path d="M170.7 74.8L159.9 93.6L181.6 93.6L170.7 74.8Z" fill="white"/>
<path d="M159.9 93.6L149 112.4L170.7 112.4L159.9 93.6Z" fill="white" fill-opacity="0.66"/>
<path d="M170.7 112.4L181.6 93.6L159.9 93.6L170.7 112.4Z" fill="white"/>
<path d="M159.9 93.6L170.7 74.8L149 74.8L159.9 93.6Z" fill="white" fill-opacity="0.66"/>
<path d="M149 74.8L138.1 93.6L159.9 93.6L149 74.8Z" fill="white"/>
<path d="M149 112.4L159.9 93.6L138.1 93.6L149 112.4Z" fill="white"/>
<path d="M159.9 131.3L149 150.1L170.7 150.1L159.9 131.3Z" fill="white" fill-opacity="0.66"/>
<path d="M170.7 150.1L181.6 131.3L159.9 131.3L170.7 150.1Z" fill="white"/>
<path d="M149 112.4L138.1 131.3L159.9 131.3L149 112.4Z" fill="white" fill-opacity="0.66"/>
<path d="M149 150.1L159.9 131.3L138.1 131.3L149 150.1Z" fill="white"/>
<path d="M170.7 150.1L159.9 168.9L181.6 168.9L170.7 150.1Z" fill="white" fill-opacity="0.66"/>
<path d="M159.9 168.9L149 187.7L170.7 187.7L159.9 168.9Z" fill="white" fill-opacity="0.66"/>
<path d="M159.9 168.9L170.7 150.1L149 150.1L159.9 168.9Z" fill="white" fill-opacity="0.66"/>
<path d="M149 150.1L138.1 168.9L159.9 168.9L149 150.1Z" fill="white" fill-opacity="0.66"/>
<path d="M149 187.7L159.9 168.9L138.1 168.9L149 187.7Z" fill="white"/>
<path d="M170.7 187.7L159.9 206.5L181.6 206.5L170.7 187.7Z" fill="white" fill-opacity="0.66"/>
<path d="M159.9 206.5L149 225.3L170.7 225.3L159.9 206.5Z" fill="white" fill-opacity="0.33"/>
<path d="M170.7 225.3L181.6 206.5L159.9 206.5L170.7 225.3Z" fill="white" fill-opacity="0.66"/>
<path d="M159.9 206.5L170.7 187.7L149 187.7L159.9 206.5Z" fill="white" fill-opacity="0.33"/>
<path d="M149 187.7L138.1 206.5L159.9 206.5L149 187.7Z" fill="white" fill-opacity="0.66"/>
<path d="M149 225.3L159.9 206.5L138.1 206.5L149 225.3Z" fill="white" fill-opacity="0.33"/>
<path d="M170.7 225.3L159.9 244.1L181.6 244.1L170.7 225.3Z" fill="white" fill-opacity="0.66"/>
<path d="M170.7 263L181.6 244.1L159.9 244.1L170.7 263Z" fill="white"/>
<path d="M159.9 244.1L170.7 225.3L149 225.3L159.9 244.1Z" fill="white"/>
<path d="M149 225.3L138.1 244.1L159.9 244.1L149 225.3Z" fill="white" fill-opacity="0.66"/>
<path d="M149 263L159.9 244.1L138.1 244.1L149 263Z" fill="white" fill-opacity="0.33"/>
<path d="M170.7 263L159.9 281.8L181.6 281.8L170.7 263Z" fill="white" fill-opacity="0.66"/>
<path d="M159.9 281.8L149 300.6L170.7 300.6L159.9 281.8Z" fill="white"/>
<path d="M170.7 300.6L181.6 281.8L159.9 281.8L170.7 300.6Z" fill="white" fill-opacity="0.66"/>
<path d="M159.9 281.8L170.7 263L149 263L159.9 281.8Z" fill="white" fill-opacity="0.33"/>
<path d="M149 263L138.1 281.8L159.9 281.8L149 263Z" fill="white" fill-opacity="0.66"/>
<path d="M149 300.6L159.9 281.8L138.1 281.8L149 300.6Z" fill="white" fill-opacity="0.33"/>
<path d="M170.7 300.6L159.9 319.4L181.6 319.4L170.7 300.6Z" fill="white" fill-opacity="0.66"/>
<path d="M159.9 319.4L149 338.2L170.7 338.2L159.9 319.4Z" fill="white" fill-opacity="0.66"/>
<path d="M170.7 338.2L181.6 319.4L159.9 319.4L170.7 338.2Z" fill="white" fill-opacity="0.66"/>
<path d="M159.9 319.4L170.7 300.6L149 300.6L159.9 319.4Z" fill="white" fill-opacity="0.33"/>
<path d="M149 300.6L138.1 319.4L159.9 319.4L149 300.6Z" fill="white" fill-opacity="0.66"/>
<path d="M149 338.2L159.9 319.4L138.1 319.4L149 338.2Z" fill="white" fill-opacity="0.66"/>
<path d="M170.7 338.2L159.9 357L181.6 357L170.7 338.2Z" fill="white" fill-opacity="0.66"/>
<path d="M159.9 357.1L149 375.9L170.7 375.9L159.9 357.1Z" fill="white" fill-opacity="0.66"/>
<path d="M159.9 357L170.7 338.2L149 338.2L159.9 357Z" fill="white" fill-opacity="0.33"/>
<path d="M149 338.2L138.1 357L159.9 357L149 338.2Z" fill="white" fill-opacity="0.33"/>
<path d="M149 375.9L159.9 357L138.1 357L149 375.9Z" fill="white" fill-opacity="0.66"/>
<path d="M170.7 375.9L159.9 394.7L181.6 394.7L170.7 375.9Z" fill="white" fill-opacity="0.33"/>
<path d="M159.9 394.7L149 413.5L170.7 413.5L159.9 394.7Z" fill="white"/>
<path d="M170.7 413.5L181.6 394.7L159.9 394.7L170.7 413.5Z" fill="white" fill-opacity="0.66"/>
<path d="M149 375.9L138.1 394.7L159.9 394.7L149 375.9Z" fill="white" fill-opacity="0.33"/>
<path d="M149 413.5L159.9 394.7L138.1 394.7L149 413.5Z" fill="white" fill-opacity="0.66"/>
<path d="M170.7 413.5L159.9 432.3L181.6 432.3L170.7 413.5Z" fill="white" fill-opacity="0.66"/>
<path d="M149 413.5L138.1 432.3L159.9 432.3L149 413.5Z" fill="white" fill-opacity="0.66"/>
<path d="M127.3 -0.399994L116.4 18.4L138.1 18.4L127.3 -0.399994Z" fill="white"/>
<path d="M138.1 18.4L149 -0.499994L127.3 -0.499995L138.1 18.4Z" fill="white" fill-opacity="0.33"/>
<path d="M116.4 18.4L127.3 -0.499995L105.5 -0.499996L116.4 18.4Z" fill="white"/>
<path d="M138.1 18.4L127.3 37.2L149 37.2L138.1 18.4Z" fill="white"/>
<path d="M127.3 37.2L116.4 56L138.1 56L127.3 37.2Z" fill="white"/>
<path d="M138.1 56L149 37.2L127.3 37.2L138.1 56Z" fill="white" fill-opacity="0.33"/>
<path d="M127.3 37.2L138.1 18.4L116.4 18.4L127.3 37.2Z" fill="white"/>
<path d="M116.4 18.4L105.5 37.2L127.3 37.2L116.4 18.4Z" fill="white" fill-opacity="0.66"/>
<path d="M116.4 56L127.3 37.2L105.5 37.2L116.4 56Z" fill="white"/>
<path d="M138.1 56L127.3 74.8L149 74.8L138.1 56Z" fill="white"/>
<path d="M138.1 93.6L149 74.8L127.3 74.8L138.1 93.6Z" fill="white"/>
<path d="M127.3 74.8L138.1 56L116.4 56L127.3 74.8Z" fill="white"/>
<path d="M116.4 93.6L127.3 74.8L105.5 74.8L116.4 93.6Z" fill="white" fill-opacity="0.66"/>
<path d="M138.1 93.6L127.3 112.4L149 112.4L138.1 93.6Z" fill="white" fill-opacity="0.66"/>
<path d="M127.3 112.4L116.4 131.3L138.1 131.3L127.3 112.4Z" fill="white" fill-opacity="0.66"/>
<path d="M138.1 131.3L149 112.4L127.3 112.4L138.1 131.3Z" fill="white"/>
<path d="M127.3 112.4L138.1 93.6L116.4 93.6L127.3 112.4Z" fill="white" fill-opacity="0.66"/>
<path d="M116.4 93.6L105.5 112.4L127.3 112.4L116.4 93.6Z" fill="white"/>
<path d="M116.4 131.3L127.3 112.4L105.5 112.4L116.4 131.3Z" fill="white" fill-opacity="0.66"/>
<path d="M138.1 131.3L127.3 150.1L149 150.1L138.1 131.3Z" fill="white"/>
<path d="M138.1 168.9L149 150.1L127.3 150.1L138.1 168.9Z" fill="white" fill-opacity="0.66"/>
<path d="M127.3 150.1L138.1 131.3L116.4 131.3L127.3 150.1Z" fill="white" fill-opacity="0.66"/>
<path d="M116.4 131.3L105.5 150.1L127.3 150.1L116.4 131.3Z" fill="white" fill-opacity="0.66"/>
<path d="M116.4 168.9L127.3 150.1L105.5 150.1L116.4 168.9Z" fill="white" fill-opacity="0.33"/>
<path d="M138.1 168.9L127.3 187.7L149 187.7L138.1 168.9Z" fill="white" fill-opacity="0.33"/>
<path d="M127.3 187.7L116.4 206.5L138.1 206.5L127.3 187.7Z" fill="white"/>
<path d="M138.1 206.5L149 187.7L127.3 187.7L138.1 206.5Z" fill="white"/>
<path d="M127.3 187.7L138.1 168.9L116.4 168.9L127.3 187.7Z" fill="white" fill-opacity="0.33"/>
<path d="M116.4 168.9L105.5 187.7L127.3 187.7L116.4 168.9Z" fill="white" fill-opacity="0.33"/>
<path d="M138.1 206.5L127.3 225.3L149 225.3L138.1 206.5Z" fill="white"/>
<path d="M127.3 225.3L116.4 244.2L138.1 244.2L127.3 225.3Z" fill="white" fill-opacity="0.66"/>
<path d="M138.1 244.1L149 225.3L127.3 225.3L138.1 244.1Z" fill="white"/>
<path d="M127.3 225.3L138.1 206.5L116.4 206.5L127.3 225.3Z" fill="white" fill-opacity="0.33"/>
<path d="M116.4 244.1L127.3 225.3L105.5 225.3L116.4 244.1Z" fill="white"/>
<path d="M138.1 281.8L149 263L127.3 263L138.1 281.8Z" fill="white"/>
<path d="M127.3 263L138.1 244.1L116.4 244.1L127.3 263Z" fill="white" fill-opacity="0.66"/>
<path d="M116.4 244.1L105.5 263L127.3 263L116.4 244.1Z" fill="white" fill-opacity="0.66"/>
<path d="M116.4 281.8L127.3 263L105.5 263L116.4 281.8Z" fill="white" fill-opacity="0.66"/>
<path d="M138.1 281.8L127.3 300.6L149 300.6L138.1 281.8Z" fill="white" fill-opacity="0.66"/>
<path d="M127.3 300.6L116.4 319.4L138.1 319.4L127.3 300.6Z" fill="white" fill-opacity="0.33"/>
<path d="M127.3 300.6L138.1 281.8L116.4 281.8L127.3 300.6Z" fill="white" fill-opacity="0.66"/>
<path d="M116.4 281.8L105.5 300.6L127.3 300.6L116.4 281.8Z" fill="white" fill-opacity="0.33"/>
<path d="M138.1 319.4L127.3 338.2L149 338.2L138.1 319.4Z" fill="white" fill-opacity="0.33"/>
<path d="M127.3 338.2L116.4 357.1L138.1 357.1L127.3 338.2Z" fill="white"/>
<path d="M138.1 357L149 338.2L127.3 338.2L138.1 357Z" fill="white"/>
<path d="M127.3 338.2L138.1 319.4L116.4 319.4L127.3 338.2Z" fill="white" fill-opacity="0.33"/>
<path d="M116.4 319.4L105.5 338.2L127.3 338.2L116.4 319.4Z" fill="white" fill-opacity="0.66"/>
<path d="M116.4 357L127.3 338.2L105.5 338.2L116.4 357Z" fill="white"/>
<path d="M138.1 357L127.3 375.9L149 375.9L138.1 357Z" fill="white"/>
<path d="M116.4 357L105.5 375.9L127.3 375.9L116.4 357Z" fill="white" fill-opacity="0.33"/>
<path d="M116.4 394.7L127.3 375.9L105.5 375.9L116.4 394.7Z" fill="white" fill-opacity="0.66"/>
<path d="M138.1 394.7L127.3 413.5L149 413.5L138.1 394.7Z" fill="white" fill-opacity="0.66"/>
<path d="M138.1 432.3L149 413.5L127.3 413.5L138.1 432.3Z" fill="white" fill-opacity="0.33"/>
<path d="M127.3 413.5L138.1 394.7L116.4 394.7L127.3 413.5Z" fill="white"/>
<path d="M116.4 394.7L105.5 413.5L127.3 413.5L116.4 394.7Z" fill="white"/>
<path d="M116.4 432.3L127.3 413.5L105.5 413.5L116.4 432.3Z" fill="white" fill-opacity="0.66"/>
<path d="M105.5 -0.499996L94.7 18.4L116.4 18.4L105.5 -0.499996Z" fill="white" fill-opacity="0.33"/>
<path d="M94.7 18.4L83.8 37.2L105.5 37.2L94.7 18.4Z" fill="white" fill-opacity="0.66"/>
<path d="M105.5 37.2L116.4 18.4L94.7 18.4L105.5 37.2Z" fill="white"/>
<path d="M83.8 -0.499997L72.9 18.4L94.7 18.4L83.8 -0.499997Z" fill="white" fill-opacity="0.33"/>
<path d="M83.8 37.2L94.7 18.4L72.9 18.4L83.8 37.2Z" fill="white" fill-opacity="0.66"/>
<path d="M105.5 74.8L116.4 56L94.7 56L105.5 74.8Z" fill="white"/>
<path d="M94.7 56L105.5 37.2L83.8 37.2L94.7 56Z" fill="white"/>
<path d="M83.8 37.2L72.9 56L94.7 56L83.8 37.2Z" fill="white"/>
<path d="M83.8 74.8L94.7 56L72.9 56L83.8 74.8Z" fill="white"/>
<path d="M105.5 74.8L94.7 93.6L116.4 93.6L105.5 74.8Z" fill="white"/>
<path d="M94.7 93.6L83.8 112.4L105.5 112.4L94.7 93.6Z" fill="white"/>
<path d="M105.5 112.4L116.4 93.6L94.7 93.6L105.5 112.4Z" fill="white" fill-opacity="0.33"/>
<path d="M94.7 93.6L105.5 74.8L83.8 74.8L94.7 93.6Z" fill="white"/>
<path d="M83.8 74.8L72.9 93.6L94.7 93.6L83.8 74.8Z" fill="white" fill-opacity="0.66"/>
<path d="M83.8 112.4L94.7 93.6L72.9 93.6L83.8 112.4Z" fill="white"/>
<path d="M105.5 112.4L94.7 131.3L116.4 131.3L105.5 112.4Z" fill="white" fill-opacity="0.66"/>
<path d="M94.7 131.3L83.8 150.1L105.5 150.1L94.7 131.3Z" fill="white" fill-opacity="0.66"/>
<path d="M105.5 150.1L116.4 131.3L94.7 131.3L105.5 150.1Z" fill="white"/>
<path d="M83.8 112.4L72.9 131.3L94.7 131.3L83.8 112.4Z" fill="white" fill-opacity="0.66"/>
<path d="M83.8 150.1L94.7 131.3L72.9 131.3L83.8 150.1Z" fill="white"/>
<path d="M105.5 150.1L94.7 168.9L116.4 168.9L105.5 150.1Z" fill="white"/>
<path d="M94.7 168.9L83.8 187.7L105.5 187.7L94.7 168.9Z" fill="white"/>
<path d="M105.5 187.7L116.4 168.9L94.7 168.9L105.5 187.7Z" fill="white"/>
<path d="M94.7 168.9L105.5 150.1L83.8 150.1L94.7 168.9Z" fill="white"/>
<path d="M83.8 150.1L72.9 168.9L94.7 168.9L83.8 150.1Z" fill="white" fill-opacity="0.66"/>
<path d="M83.8 187.7L94.7 168.9L72.9 168.9L83.8 187.7Z" fill="white"/>
<path d="M105.5 187.7L94.7 206.5L116.4 206.5L105.5 187.7Z" fill="white" fill-opacity="0.66"/>
<path d="M94.7 206.5L83.8 225.3L105.5 225.3L94.7 206.5Z" fill="white" fill-opacity="0.66"/>
<path d="M105.5 225.3L116.4 206.5L94.7 206.5L105.5 225.3Z" fill="white" fill-opacity="0.33"/>
<path d="M94.7 206.5L105.5 187.7L83.8 187.7L94.7 206.5Z" fill="white"/>
<path d="M83.8 187.7L72.9 206.5L94.7 206.5L83.8 187.7Z" fill="white"/>
<path d="M83.8 225.3L94.7 206.5L72.9 206.5L83.8 225.3Z" fill="white" fill-opacity="0.66"/>
<path d="M105.5 225.3L94.7 244.1L116.4 244.1L105.5 225.3Z" fill="white"/>
<path d="M94.7 244.2L83.8 263L105.5 263L94.7 244.2Z" fill="white" fill-opacity="0.66"/>
<path d="M105.5 263L116.4 244.1L94.7 244.1L105.5 263Z" fill="white"/>
<path d="M94.7 244.1L105.5 225.3L83.8 225.3L94.7 244.1Z" fill="white" fill-opacity="0.66"/>
<path d="M83.8 225.3L72.9 244.1L94.7 244.1L83.8 225.3Z" fill="white" fill-opacity="0.66"/>
<path d="M83.8 263L94.7 244.1L72.9 244.1L83.8 263Z" fill="white"/>
<path d="M94.7 281.8L83.8 300.6L105.5 300.6L94.7 281.8Z" fill="white" fill-opacity="0.66"/>
<path d="M105.5 300.6L116.4 281.8L94.7 281.8L105.5 300.6Z" fill="white" fill-opacity="0.33"/>
<path d="M94.7 281.8L105.5 263L83.8 263L94.7 281.8Z" fill="white" fill-opacity="0.66"/>
<path d="M83.8 263L72.9 281.8L94.7 281.8L83.8 263Z" fill="white" fill-opacity="0.33"/>
<path d="M83.8 300.6L94.7 281.8L72.9 281.8L83.8 300.6Z" fill="white"/>
<path d="M105.5 300.6L94.7 319.4L116.4 319.4L105.5 300.6Z" fill="white" fill-opacity="0.66"/>
<path d="M94.7 319.4L83.8 338.2L105.5 338.2L94.7 319.4Z" fill="white" fill-opacity="0.33"/>
<path d="M105.5 338.2L116.4 319.4L94.7 319.4L105.5 338.2Z" fill="white" fill-opacity="0.33"/>
<path d="M83.8 300.6L72.9 319.4L94.7 319.4L83.8 300.6Z" fill="white"/>
<path d="M83.8 338.2L94.7 319.4L72.9 319.4L83.8 338.2Z" fill="white" fill-opacity="0.33"/>
<path d="M105.5 338.2L94.7 357L116.4 357L105.5 338.2Z" fill="white"/>
<path d="M94.7 357.1L83.8 375.9L105.5 375.9L94.7 357.1Z" fill="white"/>
<path d="M105.5 375.9L116.4 357L94.7 357L105.5 375.9Z" fill="white"/>
<path d="M94.7 357L105.5 338.2L83.8 338.2L94.7 357Z" fill="white"/>
<path d="M83.8 338.2L72.9 357L94.7 357L83.8 338.2Z" fill="white" fill-opacity="0.66"/>
<path d="M83.8 375.9L94.7 357L72.9 357L83.8 375.9Z" fill="white"/>
<path d="M105.5 375.9L94.7 394.7L116.4 394.7L105.5 375.9Z" fill="white" fill-opacity="0.33"/>
<path d="M105.5 413.5L116.4 394.7L94.7 394.7L105.5 413.5Z" fill="white"/>
<path d="M94.7 394.7L105.5 375.9L83.8 375.9L94.7 394.7Z" fill="white"/>
<path d="M83.8 375.9L72.9 394.7L94.7 394.7L83.8 375.9Z" fill="white"/>
<path d="M94.7 432.3L105.5 413.5L83.8 413.5L94.7 432.3Z" fill="white" fill-opacity="0.66"/>
<path d="M83.8 413.5L72.9 432.3L94.7 432.3L83.8 413.5Z" fill="white" fill-opacity="0.66"/>
<path d="M62.1 -0.399997L51.2 18.4L72.9 18.4L62.1 -0.399997Z" fill="white" fill-opacity="0.33"/>
<path d="M72.9 18.4L83.8 -0.499997L62.1 -0.499998L72.9 18.4Z" fill="white"/>
<path d="M51.2 18.4L62.1 -0.499998L40.4 -0.499999L51.2 18.4Z" fill="white" fill-opacity="0.66"/>
<path d="M62.1 37.2L51.2 56L72.9 56L62.1 37.2Z" fill="white" fill-opacity="0.66"/>
<path d="M72.9 56L83.8 37.2L62.1 37.2L72.9 56Z" fill="white" fill-opacity="0.33"/>
<path d="M62.1 37.2L72.9 18.4L51.2 18.4L62.1 37.2Z" fill="white" fill-opacity="0.66"/>
<path d="M51.2 18.4L40.4 37.2L62.1 37.2L51.2 18.4Z" fill="white" fill-opacity="0.66"/>
<path d="M51.2 56L62.1 37.2L40.4 37.2L51.2 56Z" fill="white" fill-opacity="0.66"/>
<path d="M72.9 56L62.1 74.8L83.8 74.8L72.9 56Z" fill="white" fill-opacity="0.66"/>
<path d="M62.1 74.8L51.2 93.6L72.9 93.6L62.1 74.8Z" fill="white" fill-opacity="0.33"/>
<path d="M62.1 74.8L72.9 56L51.2 56L62.1 74.8Z" fill="white" fill-opacity="0.66"/>
<path d="M51.2 56L40.4 74.8L62.1 74.8L51.2 56Z" fill="white"/>
<path d="M51.2 93.6L62.1 74.8L40.4 74.8L51.2 93.6Z" fill="white" fill-opacity="0.66"/>
<path d="M62.1 112.4L72.9 93.6L51.2 93.6L62.1 112.4Z" fill="white"/>
<path d="M72.9 131.3L62.1 150.1L83.8 150.1L72.9 131.3Z" fill="white" fill-opacity="0.33"/>
<path d="M62.1 150.1L51.2 168.9L72.9 168.9L62.1 150.1Z" fill="white" fill-opacity="0.33"/>
<path d="M51.2 131.3L40.4 150.1L62.1 150.1L51.2 131.3Z" fill="white"/>
<path d="M51.2 168.9L62.1 150.1L40.4 150.1L51.2 168.9Z" fill="white" fill-opacity="0.66"/>
<path d="M72.9 168.9L62.1 187.7L83.8 187.7L72.9 168.9Z" fill="white"/>
<path d="M62.1 187.7L51.2 206.5L72.9 206.5L62.1 187.7Z" fill="white"/>
<path d="M72.9 206.5L83.8 187.7L62.1 187.7L72.9 206.5Z" fill="white" fill-opacity="0.33"/>
<path d="M62.1 187.7L72.9 168.9L51.2 168.9L62.1 187.7Z" fill="white" fill-opacity="0.33"/>
<path d="M51.2 206.5L62.1 187.7L40.4 187.7L51.2 206.5Z" fill="white" fill-opacity="0.66"/>
<path d="M72.9 206.5L62.1 225.3L83.8 225.3L72.9 206.5Z" fill="white" fill-opacity="0.66"/>
<path d="M62.1 225.3L51.2 244.2L72.9 244.2L62.1 225.3Z" fill="white" fill-opacity="0.66"/>
<path d="M72.9 244.1L83.8 225.3L62.1 225.3L72.9 244.1Z" fill="white" fill-opacity="0.33"/>
<path d="M62.1 225.3L72.9 206.5L51.2 206.5L62.1 225.3Z" fill="white" fill-opacity="0.33"/>
<path d="M51.2 206.5L40.4 225.3L62.1 225.3L51.2 206.5Z" fill="white" fill-opacity="0.66"/>
<path d="M51.2 244.1L62.1 225.3L40.4 225.3L51.2 244.1Z" fill="white" fill-opacity="0.66"/>
<path d="M72.9 244.1L62.1 263L83.8 263L72.9 244.1Z" fill="white" fill-opacity="0.66"/>
<path d="M62.1 263L51.2 281.8L72.9 281.8L62.1 263Z" fill="white"/>
<path d="M72.9 281.8L83.8 263L62.1 263L72.9 281.8Z" fill="white"/>
<path d="M62.1 263L72.9 244.1L51.2 244.1L62.1 263Z" fill="white" fill-opacity="0.33"/>
<path d="M51.2 244.1L40.4 263L62.1 263L51.2 244.1Z" fill="white"/>
<path d="M51.2 281.8L62.1 263L40.4 263L51.2 281.8Z" fill="white" fill-opacity="0.66"/>
<path d="M72.9 281.8L62.1 300.6L83.8 300.6L72.9 281.8Z" fill="white"/>
<path d="M62.1 300.6L51.2 319.4L72.9 319.4L62.1 300.6Z" fill="white"/>
<path d="M72.9 319.4L83.8 300.6L62.1 300.6L72.9 319.4Z" fill="white" fill-opacity="0.66"/>
<path d="M51.2 281.8L40.4 300.6L62.1 300.6L51.2 281.8Z" fill="white"/>
<path d="M51.2 319.4L62.1 300.6L40.4 300.6L51.2 319.4Z" fill="white"/>
<path d="M72.9 319.4L62.1 338.2L83.8 338.2L72.9 319.4Z" fill="white"/>
<path d="M62.1 338.2L51.2 357.1L72.9 357.1L62.1 338.2Z" fill="white" fill-opacity="0.66"/>
<path d="M72.9 357L83.8 338.2L62.1 338.2L72.9 357Z" fill="white" fill-opacity="0.66"/>
<path d="M62.1 338.2L72.9 319.4L51.2 319.4L62.1 338.2Z" fill="white" fill-opacity="0.66"/>
<path d="M51.2 357L62.1 338.2L40.4 338.2L51.2 357Z" fill="white" fill-opacity="0.66"/>
<path d="M72.9 357L62.1 375.9L83.8 375.9L72.9 357Z" fill="white" fill-opacity="0.33"/>
<path d="M62.1 375.9L51.2 394.7L72.9 394.7L62.1 375.9Z" fill="white"/>
<path d="M62.1 375.9L72.9 357L51.2 357L62.1 375.9Z" fill="white" fill-opacity="0.66"/>
<path d="M51.2 357L40.4 375.9L62.1 375.9L51.2 357Z" fill="white"/>
<path d="M51.2 394.7L62.1 375.9L40.4 375.9L51.2 394.7Z" fill="white" fill-opacity="0.66"/>
<path d="M72.9 394.7L62.1 413.5L83.8 413.5L72.9 394.7Z" fill="white"/>
<path d="M62.1 413.5L51.2 432.3L72.9 432.3L62.1 413.5Z" fill="white" fill-opacity="0.66"/>
<path d="M72.9 432.3L83.8 413.5L62.1 413.5L72.9 432.3Z" fill="white"/>
<path d="M62.1 413.5L72.9 394.7L51.2 394.7L62.1 413.5Z" fill="white" fill-opacity="0.33"/>
<path d="M51.2 394.7L40.4 413.5L62.1 413.5L51.2 394.7Z" fill="white"/>
<path d="M51.2 432.3L62.1 413.5L40.4 413.5L51.2 432.3Z" fill="white"/>
<path d="M40.4 -0.499999L29.5 18.4L51.2 18.4L40.4 -0.499999Z" fill="white"/>
<path d="M29.5 18.4L18.6 37.2L40.4 37.2L29.5 18.4Z" fill="white" fill-opacity="0.33"/>
<path d="M18.6 -0.499999L7.80002 18.4L29.5 18.4L18.6 -0.499999Z" fill="white"/>
<path d="M18.6 37.2L29.5 18.4L7.80002 18.4L18.6 37.2Z" fill="white"/>
<path d="M40.4 37.2L29.5 56L51.2 56L40.4 37.2Z" fill="white" fill-opacity="0.33"/>
<path d="M29.5 56L18.6 74.8L40.4 74.8L29.5 56Z" fill="white"/>
<path d="M40.4 74.8L51.2 56L29.5 56L40.4 74.8Z" fill="white" fill-opacity="0.66"/>
<path d="M29.5 56L40.4 37.2L18.6 37.2L29.5 56Z" fill="white"/>
<path d="M18.6 37.2L7.80002 56L29.5 56L18.6 37.2Z" fill="white" fill-opacity="0.33"/>
<path d="M18.6 74.8L29.5 56L7.80002 56L18.6 74.8Z" fill="white" fill-opacity="0.66"/>
<path d="M40.4 74.8L29.5 93.6L51.2 93.6L40.4 74.8Z" fill="white"/>
<path d="M29.5 93.6L18.6 112.4L40.4 112.4L29.5 93.6Z" fill="white" fill-opacity="0.66"/>
<path d="M29.5 93.6L40.4 74.8L18.6 74.8L29.5 93.6Z" fill="white" fill-opacity="0.66"/>
<path d="M18.6 112.4L29.5 93.6L7.80002 93.6L18.6 112.4Z" fill="white" fill-opacity="0.66"/>
<path d="M40.4 112.4L29.5 131.3L51.2 131.3L40.4 112.4Z" fill="white"/>
<path d="M40.4 150.1L51.2 131.3L29.5 131.3L40.4 150.1Z" fill="white" fill-opacity="0.33"/>
<path d="M18.6 112.4L7.80002 131.3L29.5 131.3L18.6 112.4Z" fill="white"/>
<path d="M18.6 150.1L29.5 131.3L7.80002 131.3L18.6 150.1Z" fill="white" fill-opacity="0.66"/>
<path d="M40.4 150.1L29.5 168.9L51.2 168.9L40.4 150.1Z" fill="white"/>
<path d="M29.5 168.9L18.6 187.7L40.4 187.7L29.5 168.9Z" fill="white"/>
<path d="M40.4 187.7L51.2 168.9L29.5 168.9L40.4 187.7Z" fill="white"/>
<path d="M29.5 168.9L40.4 150.1L18.6 150.1L29.5 168.9Z" fill="white" fill-opacity="0.66"/>
<path d="M18.6 150.1L7.80002 168.9L29.5 168.9L18.6 150.1Z" fill="white" fill-opacity="0.33"/>
<path d="M40.4 187.7L29.5 206.5L51.2 206.5L40.4 187.7Z" fill="white" fill-opacity="0.33"/>
<path d="M29.5 206.5L18.6 225.3L40.4 225.3L29.5 206.5Z" fill="white" fill-opacity="0.66"/>
<path d="M40.4 225.3L51.2 206.5L29.5 206.5L40.4 225.3Z" fill="white" fill-opacity="0.66"/>
<path d="M18.6 187.7L7.8 206.5L29.5 206.5L18.6 187.7Z" fill="white"/>
<path d="M18.6 225.3L29.5 206.5L7.8 206.5L18.6 225.3Z" fill="white"/>
<path d="M40.4 225.3L29.5 244.1L51.2 244.1L40.4 225.3Z" fill="white"/>
<path d="M29.5 244.2L18.6 263L40.4 263L29.5 244.2Z" fill="white" fill-opacity="0.66"/>
<path d="M40.4 263L51.2 244.1L29.5 244.1L40.4 263Z" fill="white"/>
<path d="M18.6 225.3L7.8 244.1L29.5 244.1L18.6 225.3Z" fill="white"/>
<path d="M18.6 263L29.5 244.1L7.8 244.1L18.6 263Z" fill="white"/>
<path d="M40.4 263L29.5 281.8L51.2 281.8L40.4 263Z" fill="white" fill-opacity="0.66"/>
<path d="M40.4 300.6L51.2 281.8L29.5 281.8L40.4 300.6Z" fill="white" fill-opacity="0.66"/>
<path d="M29.5 281.8L40.4 263L18.6 263L29.5 281.8Z" fill="white"/>
<path d="M18.6 263L7.8 281.8L29.5 281.8L18.6 263Z" fill="white" fill-opacity="0.33"/>
<path d="M29.5 319.4L18.6 338.2L40.4 338.2L29.5 319.4Z" fill="white" fill-opacity="0.66"/>
<path d="M40.4 338.2L51.2 319.4L29.5 319.4L40.4 338.2Z" fill="white" fill-opacity="0.66"/>
<path d="M29.5 319.4L40.4 300.6L18.6 300.6L29.5 319.4Z" fill="white" fill-opacity="0.66"/>
<path d="M18.6 338.2L29.5 319.4L7.8 319.4L18.6 338.2Z" fill="white" fill-opacity="0.66"/>
<path d="M40.4 338.2L29.5 357L51.2 357L40.4 338.2Z" fill="white"/>
<path d="M29.5 357.1L18.6 375.9L40.4 375.9L29.5 357.1Z" fill="white"/>
<path d="M29.5 357L40.4 338.2L18.6 338.2L29.5 357Z" fill="white" fill-opacity="0.66"/>
<path d="M18.6 338.2L7.8 357L29.5 357L18.6 338.2Z" fill="white"/>
<path d="M18.6 375.9L29.5 357L7.8 357L18.6 375.9Z" fill="white" fill-opacity="0.66"/>
<path d="M40.4 375.9L29.5 394.7L51.2 394.7L40.4 375.9Z" fill="white" fill-opacity="0.33"/>
<path d="M29.5 394.7L18.6 413.5L40.4 413.5L29.5 394.7Z" fill="white" fill-opacity="0.66"/>
<path d="M40.4 413.5L51.2 394.7L29.5 394.7L40.4 413.5Z" fill="white" fill-opacity="0.66"/>
<path d="M18.6 413.5L29.5 394.7L7.8 394.7L18.6 413.5Z" fill="white" fill-opacity="0.33"/>
<path d="M29.5 432.3L40.4 413.5L18.6 413.5L29.5 432.3Z" fill="white" fill-opacity="0.66"/>
<path d="M18.6 413.5L7.8 432.3L29.5 432.3L18.6 413.5Z" fill="white"/>
<path d="M-3.09998 -0.4L-14 18.4L7.80002 18.4L-3.09998 -0.4Z" fill="white" fill-opacity="0.33"/>
<path d="M7.80002 18.4L18.6 -0.499999L-3.09998 -0.5L7.80002 18.4Z" fill="white"/>
<path d="M7.80002 18.4L-3.09998 37.2L18.6 37.2L7.80002 18.4Z" fill="white"/>
<path d="M-3.09998 37.2L-14 56L7.80002 56L-3.09998 37.2Z" fill="white" fill-opacity="0.33"/>
<path d="M7.80002 56L18.6 37.2L-3.09998 37.2L7.80002 56Z" fill="white" fill-opacity="0.66"/>
<path d="M7.80002 93.6L18.6 74.8L-3.09998 74.8L7.80002 93.6Z" fill="white"/>
<path d="M7.80002 93.6L-3.09998 112.4L18.6 112.4L7.80002 93.6Z" fill="white" fill-opacity="0.66"/>
<path d="M-3.09998 112.4L-14 131.3L7.80002 131.3L-3.09998 112.4Z" fill="white"/>
<path d="M7.80002 131.3L18.6 112.4L-3.09998 112.4L7.80002 131.3Z" fill="white" fill-opacity="0.33"/>
<path d="M-3.09998 112.4L7.80002 93.6L-14 93.6L-3.09998 112.4Z" fill="white"/>
<path d="M7.80002 131.3L-3.09998 150.1L18.6 150.1L7.80002 131.3Z" fill="white" fill-opacity="0.66"/>
<path d="M-3.09998 150.1L-14 168.9L7.80002 168.9L-3.09998 150.1Z" fill="white" fill-opacity="0.33"/>
<path d="M7.80002 168.9L18.6 150.1L-3.09998 150.1L7.80002 168.9Z" fill="white" fill-opacity="0.66"/>
<path d="M-3.09998 150.1L7.80002 131.3L-14 131.3L-3.09998 150.1Z" fill="white"/>
<path d="M7.8 168.9L-3.09999 187.7L18.6 187.7L7.8 168.9Z" fill="white" fill-opacity="0.66"/>
<path d="M-3.09999 187.7L-14 206.5L7.8 206.5L-3.09999 187.7Z" fill="white" fill-opacity="0.66"/>
<path d="M-3.09999 187.7L7.8 168.9L-14 168.9L-3.09999 187.7Z" fill="white" fill-opacity="0.66"/>
<path d="M7.8 206.5L-3.09999 225.3L18.6 225.3L7.8 206.5Z" fill="white" fill-opacity="0.66"/>
<path d="M-3.09999 225.3L-14 244.2L7.8 244.2L-3.09999 225.3Z" fill="white" fill-opacity="0.66"/>
<path d="M7.8 244.1L18.6 225.3L-3.09999 225.3L7.8 244.1Z" fill="white" fill-opacity="0.66"/>
<path d="M-3.09999 225.3L7.8 206.5L-14 206.5L-3.09999 225.3Z" fill="white"/>
<path d="M7.8 244.1L-3.09999 263L18.6 263L7.8 244.1Z" fill="white"/>
<path d="M-3.09999 263L-14 281.8L7.8 281.8L-3.09999 263Z" fill="white" fill-opacity="0.66"/>
<path d="M-3.09999 263L7.8 244.1L-14 244.1L-3.09999 263Z" fill="white" fill-opacity="0.66"/>
<path d="M7.8 281.8L-3.09999 300.6L18.6 300.6L7.8 281.8Z" fill="white" fill-opacity="0.66"/>
<path d="M-3.09999 300.6L-14 319.4L7.8 319.4L-3.09999 300.6Z" fill="white" fill-opacity="0.33"/>
<path d="M-3.09999 300.6L7.8 281.8L-14 281.8L-3.09999 300.6Z" fill="white" fill-opacity="0.66"/>
<path d="M7.8 319.4L-3.09999 338.2L18.6 338.2L7.8 319.4Z" fill="white" fill-opacity="0.33"/>
<path d="M-3.09999 338.2L-14 357.1L7.8 357.1L-3.09999 338.2Z" fill="white" fill-opacity="0.33"/>
<path d="M7.8 357L18.6 338.2L-3.09999 338.2L7.8 357Z" fill="white" fill-opacity="0.66"/>
<path d="M-3.09999 338.2L7.8 319.4L-14 319.4L-3.09999 338.2Z" fill="white" fill-opacity="0.66"/>
<path d="M7.8 357L-3.09999 375.9L18.6 375.9L7.8 357Z" fill="white" fill-opacity="0.66"/>
<path d="M-3.09999 375.9L-14 394.7L7.8 394.7L-3.09999 375.9Z" fill="white"/>
<path d="M7.8 394.7L18.6 375.9L-3.09999 375.9L7.8 394.7Z" fill="white" fill-opacity="0.66"/>
<path d="M-3.09999 375.9L7.8 357L-14 357L-3.09999 375.9Z" fill="white" fill-opacity="0.66"/>
<path d="M7.8 394.7L-3.09999 413.5L18.6 413.5L7.8 394.7Z" fill="white" fill-opacity="0.33"/>
<path d="M7.8 432.3L18.6 413.5L-3.09999 413.5L7.8 432.3Z" fill="white" fill-opacity="0.66"/>
<path d="M-3.09999 413.5L7.8 394.7L-14 394.7L-3.09999 413.5Z" fill="white"/>
</g>
</svg>
