<svg width="96" height="96" viewBox="0 0 96 96" fill="none" xmlns="http://www.w3.org/2000/svg">
<path fill-rule="evenodd" clip-rule="evenodd" d="M65.8986 80.6909C66.6443 79.0575 66.7421 77.2037 66.1725 75.5015L65.478 74.0046L55.6233 57.0978H29.9477L20.192 40.6645C20.192 40.6645 18.754 38.3777 20.4822 34.859L20.4849 34.8044L31.5525 15H31.5623C31.0905 15.8596 30.8021 16.8069 30.7151 17.7827C30.6281 18.7584 30.7445 19.7416 31.0569 20.6705L31.7514 22.1673L41.6259 39.4375L67.2818 39.404L75.9924 53.8295C76.1572 54.4364 78.668 57.7957 76.7477 61.3129L75.7781 62.9757L65.8986 80.6909ZM65.6329 81.1471L65.8986 80.6909C65.8254 80.8522 65.754 81.0141 65.6673 81.1719L65.6329 81.1471Z" fill="#1E5BCB" fill-opacity="0.75"/>
<path fill-rule="evenodd" clip-rule="evenodd" d="M36.3527 19.2714L36.3629 19.2506C36.3155 19.1846 36.262 19.125 36.2203 19.0535C35.8876 18.4795 35.7975 17.7974 35.9697 17.1573C36.142 16.5171 36.5625 15.9713 37.1388 15.6399C37.4968 15.427 37.9016 15.3046 38.3179 15.2832L38.3193 15.3005L76.8134 15.275L76.8189 15.2856C77.2218 15.2984 77.6156 15.4088 77.9662 15.6072C79.1663 16.2973 79.2638 17.8255 78.5709 19.0207C78.5482 19.06 78.5172 19.0914 78.4927 19.1289L78.4999 19.1431L69.9193 33.8548L44.8447 33.8517L36.3527 19.2714ZM60.6504 76.9929L60.64 77.0137C60.6874 77.0796 60.7411 77.1392 60.7826 77.2108C60.9474 77.495 61.0543 77.8087 61.0974 78.134C61.1404 78.4594 61.1186 78.79 61.0334 79.107C60.9481 79.4239 60.801 79.7211 60.6004 79.9814C60.3998 80.2418 60.1497 80.4602 59.8643 80.6243C59.5064 80.8373 59.1016 80.9598 58.6852 80.9811L58.6839 80.9637L20.1897 80.9445L20.1843 80.9341C19.7813 80.9213 19.3875 80.811 19.0369 80.6126C17.8368 79.9225 17.7393 78.394 18.4322 77.1988C18.4549 77.1595 18.486 77.1284 18.5104 77.0907L18.5032 77.0767L27.0841 62.7219L52.1579 62.7249L60.6504 76.9929Z" fill="#1E5BCB"/>
</svg>
