<svg width="96" height="96" viewBox="0 0 96 96" fill="none" xmlns="http://www.w3.org/2000/svg">
<path fill-rule="evenodd" clip-rule="evenodd" d="M81.8042 59.0096C86.0195 64.5778 78.0476 69.3089 74.0246 63.063C70.8675 58.1613 73.3438 50.7773 73.3438 48.0004C73.3439 43.1053 71.9027 38.32 69.2023 34.2497C66.502 30.1795 62.6637 27.0071 58.173 25.1337C53.6823 23.2603 48.7408 22.77 43.9734 23.725C39.2061 24.6799 34.8269 27.0371 31.3898 30.4985C27.9527 33.9598 25.612 38.3699 24.6637 43.171C23.7154 47.9721 24.2021 52.9486 26.0623 57.4711C27.9224 61.9937 31.0725 65.8591 35.1141 68.5787C39.1557 71.2983 43.9073 72.7498 48.7681 72.7497C51.61 72.7497 56.1096 71.9931 56.9676 69.7631C56.9676 69.7631 57.0621 52.126 57.0621 47.961C57.038 43.4253 53.2776 39.7548 48.7681 39.7548C46.5957 39.7518 44.511 40.6179 42.9727 42.1627C41.4345 43.7076 40.5686 45.8045 40.5655 47.9923C40.5625 50.1801 41.4225 52.2795 42.9565 53.8286C44.4905 55.3778 46.5727 56.2498 48.7451 56.2529C48.7451 56.2529 50.8452 57.3308 50.8452 60.3751C50.8452 64.7447 45.8642 64.2812 44.1477 63.8094C41.2313 62.9447 38.6115 61.2796 36.5814 59.0005C34.5514 56.7214 33.1914 53.9182 32.6535 50.9049C32.1156 47.8915 32.4212 44.7868 33.5359 41.9384C34.6507 39.09 36.5307 36.6102 38.9654 34.7768C41.4002 32.9433 44.2936 31.8285 47.3218 31.5571C50.35 31.2857 53.3934 31.8685 56.1114 33.2401C58.8294 34.6118 61.1146 36.7182 62.7113 39.3237C64.308 41.9291 65.1531 44.9306 65.1521 47.9923C65.1521 52.0776 65.1812 73.3301 65.1812 73.3301C65.1812 75.6026 62.0418 78.0207 61.4904 78.3384C61.4904 78.3384 59.1501 81 48.7676 81C42.2868 80.9999 35.9514 79.0644 30.5628 75.4383C25.1742 71.8122 20.9743 66.6583 18.4942 60.6283C16.0142 54.5984 15.3653 47.9632 16.6297 41.5618C17.8941 35.1605 21.0149 29.2805 25.5976 24.6654C30.1803 20.0503 36.019 16.9074 42.3754 15.6341C48.7317 14.3608 55.3202 15.0143 61.3078 17.512C67.2954 20.0096 72.413 24.2393 76.0136 29.6661C79.6142 35.0929 81.5361 41.473 81.5361 47.9998C81.5361 52.4069 79.4632 55.9176 81.8042 59.0096Z" fill="#ba0e63"/>
</svg>
