<svg width="96" height="96" viewBox="0 0 96 96" fill="none" xmlns="http://www.w3.org/2000/svg">
<path d="M48.68 82.1503C49.8752 80.621 52.4096 77.9879 54.1818 76.4586L54.347 76.3104C55.271 75.4827 56.4196 74.4532 56.9636 73.9523L57.994 72.9752L60.6727 72.7842C63.5781 72.5717 69.5952 72.5295 71.0788 72.6991L72.0063 72.8056L71.9028 71.7434C71.7383 70.0874 71.7793 64.3953 71.9853 61.2309L72.1503 58.3639L73.1189 57.3021C73.6544 56.7075 74.7055 55.4756 75.4675 54.5199C76.9517 52.651 80.0424 49.5502 81.2374 48.7008C81.6494 48.4036 82 48.1275 82 48.0636C81.9795 47.9999 81.423 47.5326 80.7429 47.0017C79.3213 45.9186 76.9927 43.4763 74.149 40.0781L72.1708 37.7419L71.9853 34.8748C71.7793 31.7741 71.7383 26.0825 71.9028 24.3835L72.0063 23.3215L70.9757 23.4278C69.3479 23.5977 63.6194 23.5552 60.6727 23.3428L57.994 23.1729L57.0667 22.2809C56.5516 21.7712 55.2533 20.6032 54.1818 19.6687C53.1103 18.713 51.5854 17.2476 50.7818 16.3556C49.9987 15.4848 49.0097 14.3806 48.6182 13.8921L47.897 13L47.0934 14.168C46.1662 15.506 43.5698 18.1609 40.2522 21.1129L37.9855 23.1517L35.3067 23.3428C32.4219 23.5552 26.6729 23.5977 25.0243 23.4278L23.994 23.3215L24.0971 24.3835C24.262 26.0612 24.2207 31.9654 24.0147 35.0024L23.8496 37.7633L22.9843 38.719C22.5104 39.2498 21.4594 40.4816 20.6558 41.4799C18.9867 43.5399 15.9371 46.6194 14.7831 47.4265C14.3504 47.7239 14 47.9999 14 48.0636C14.0002 48.1275 14.3505 48.4036 14.7625 48.7008C15.9164 49.5079 18.8838 52.4812 20.388 54.3501C21.1298 55.2633 22.2014 56.5373 22.7783 57.1745L23.8293 58.3639L24.0147 61.1249C24.2207 64.1194 24.262 70.3207 24.0971 71.8499L23.994 72.8056L25.0243 72.6991C26.6729 72.5295 32.4218 72.5717 35.3273 72.7842L38.0062 72.9752L39.6545 74.4831C40.5818 75.3114 42.0243 76.6074 42.8693 77.372C44.188 78.5609 45.074 79.5166 47.4849 82.3627L48.0207 83L48.68 82.1503ZM47.0522 77.1167C46.4958 76.5431 45.0534 75.2054 43.8376 74.1438C42.6014 73.0608 41.6123 72.1474 41.6122 72.0838C41.6122 72.0201 42.1067 71.6589 42.6838 71.3191C44.0438 70.5117 46.5783 68.0483 47.3202 66.8377C47.6291 66.3282 47.938 65.9037 48 65.9034C48.0618 65.9034 48.3709 66.328 48.68 66.8377C49.257 67.7934 52.1829 70.7878 52.5127 70.7878C52.6158 70.7878 53.1309 70.2998 53.6667 69.6839L54.6352 68.5793L54.0376 68.1545C52.8838 67.3262 51.2971 65.4786 50.7201 64.268C49.9783 62.7602 49.4423 61.0398 48.7005 57.7693C48.3709 56.4101 48.062 55.2847 47.9794 55.2845C47.897 55.2845 47.7322 55.7941 47.588 56.3889C46.5989 60.8275 46.0631 62.7177 45.3625 64.0769C44.4145 65.9458 42.56 67.8783 40.7672 68.8766C39.4485 69.6197 39.4485 69.6197 36.7698 69.6197C35.3067 69.6197 32.6073 69.5352 30.7733 69.4287L27.4558 69.2377L27.3322 66.2431C27.2496 64.5865 27.126 62.5691 27.0642 61.7195L26.9202 60.1904L27.8062 60.5089C29.7225 61.1884 33.3903 61.2733 35.4096 60.6787C35.8631 60.5301 35.8836 60.5726 35.7187 61.2523C35.6158 61.6557 35.5334 63.1637 35.5334 64.6291V67.2837L38.4594 67.4113L38.4389 65.0112C38.4182 61.6769 38.8509 60.4027 41.6534 55.7517C42.4571 54.435 43.0547 53.3093 42.9929 53.2243C42.9103 53.1605 41.7976 53.7977 40.4994 54.626C36.1103 57.4507 33.8849 58.2153 30.9383 57.9604C27.8267 57.663 26.3431 56.7073 23.2727 53.0331C22.2218 51.7588 20.8 50.1236 20.0994 49.4015L18.8631 48.0848L20.2025 46.6406C20.9444 45.8549 22.2218 44.3683 23.046 43.3277C23.8702 42.3083 24.612 41.48 24.6946 41.4799C24.7564 41.4799 25.1067 41.9895 25.4363 42.5843C26.2195 43.986 28.6098 46.5982 29.7844 47.3628C30.2789 47.6814 30.6909 47.9999 30.6909 48.0636C30.6907 48.1275 30.2787 48.4459 29.7844 48.7643C28.8778 49.3591 25.9521 52.3531 25.9516 52.7146C25.9516 52.9908 27.7649 54.6473 28.0534 54.6473C28.1976 54.6473 28.548 54.3076 28.8158 53.8828C30.4644 51.3979 33.0607 50.06 38.9951 48.7008C40.0871 48.4248 40.9937 48.1487 40.994 48.0636C40.994 47.9788 39.4072 47.5114 37.4703 47.023C34.9565 46.4071 33.5347 45.9398 32.4838 45.3663C30.5674 44.3257 28.6716 42.3718 27.7649 40.4816C27.1056 39.0801 27.0849 38.9738 27.0849 36.3828C27.0849 34.9173 27.1674 32.199 27.2703 30.3088L27.4558 26.8895L30.3612 26.7622C31.9686 26.6772 33.9467 26.5497 34.7709 26.486L36.2545 26.3374L35.9042 27.2719C35.6571 27.9728 35.554 28.9285 35.554 31.1796C35.5333 32.8148 35.5951 34.4712 35.6776 34.8748C35.8424 35.5333 35.8218 35.5757 35.3685 35.427C35.1209 35.3422 33.6374 35.2147 32.0922 35.1722L29.2485 35.066V38.2306L31.5769 38.2093C34.7914 38.1881 36.028 38.6341 40.5405 41.5223C41.8182 42.3506 42.9103 42.9666 42.9929 42.9029C43.0545 42.8177 42.4569 41.6922 41.674 40.3755C40.8704 39.0589 40.0049 37.5508 39.7576 37.0199C38.0885 33.6219 37.9031 30.0753 39.2425 27.0808C39.9019 25.6153 40.3345 25.1267 43.7758 22.0472C45.2594 20.7306 46.7841 19.3077 47.1551 18.8829C47.5465 18.4583 47.938 18.1185 48 18.1184C48.0823 18.1184 48.3503 18.3732 48.6389 18.6706C48.9069 18.9892 50.2874 20.2846 51.7091 21.5589C53.1304 22.854 54.3048 23.958 54.3261 24.0436C54.3467 24.1073 53.8521 24.4897 53.2133 24.8932C51.7709 25.8065 49.4218 28.0577 48.68 29.2894C48.3709 29.7991 48.0618 30.2239 48 30.2239C47.938 30.2237 47.6291 29.7989 47.3202 29.2894C46.7431 28.3337 43.8173 25.3396 43.4874 25.3392C43.3843 25.3392 42.8693 25.8277 42.3334 26.4437L41.3649 27.5478L41.9625 27.9726C43.1164 28.8009 44.6413 30.6274 45.3625 32.0716C46.1249 33.537 46.5987 35.1085 47.3818 38.7615C47.6496 39.9083 47.897 40.8427 47.9794 40.8427C48.062 40.8424 48.3709 39.7169 48.7005 38.3367C49.4836 34.9599 49.9989 33.3247 50.7612 31.8167C51.6474 30.054 53.5842 28.1212 55.3358 27.2292C56.7163 26.5284 56.7989 26.5072 59.3334 26.5072C60.7552 26.5072 63.3927 26.5922 65.2267 26.6983L68.5443 26.8895L68.6678 29.884C68.7503 31.5405 68.874 33.5582 68.9358 34.4078L69.08 35.9368L68.1732 35.5758C67.1635 35.1935 62.0536 35.0661 60.8376 35.3845L60.1576 35.5758L60.3224 34.8537C60.4049 34.4713 60.4667 32.9636 60.4667 31.4982V28.8434L57.4376 28.716L57.5818 30.3088C57.8703 33.4519 57.0667 35.9156 54.1201 40.8002C53.4607 41.9047 52.9661 42.8391 53.0073 42.8817C53.0695 42.9451 54.2028 42.3079 55.542 41.4587C58.9007 39.3561 60.6729 38.549 62.5067 38.2516C65.3091 37.8058 68.5856 38.6764 70.2342 40.2693C70.6047 40.6517 71.7178 41.9047 72.6858 43.0727C73.6749 44.2407 75.0555 45.8335 75.7771 46.6194L77.1161 48.0423L75.5711 49.7414C74.726 50.6547 73.4484 52.1412 72.7274 53.0331C71.9853 53.9251 71.3468 54.6473 71.2848 54.6473C71.2233 54.6473 70.8523 54.0525 70.4607 53.3517C69.6367 51.8863 67.5758 49.6352 66.2158 48.7643C65.7214 48.4248 65.3092 48.1275 65.3091 48.0636C65.3091 47.9999 65.7212 47.6814 66.2158 47.3628C67.143 46.768 70.0482 43.7525 70.0487 43.4126C70.0487 43.3063 69.5747 42.7755 68.9769 42.2232L67.9056 41.225L67.4934 41.8409C66.6898 43.0301 64.8969 44.6655 63.7223 45.2601C62.2594 46.0247 60.5903 46.5771 57.4376 47.3416C56.0985 47.6814 55.0065 47.9998 55.0061 48.0848C55.0061 48.1485 56.0983 48.4883 57.4376 48.8068C61.2703 49.72 62.0329 49.9749 63.5576 50.8031C65.4327 51.8014 67.3285 53.7765 68.2352 55.6455C68.8945 57.0472 68.9152 57.1533 68.9152 59.7444C68.9152 61.2097 68.8327 63.9282 68.7298 65.8185L68.5443 69.2377L65.6388 69.365C64.0316 69.4501 62.0534 69.5774 61.2292 69.6411L59.7454 69.7899L60.0958 68.8554C60.3431 68.1545 60.446 67.1988 60.446 64.9477C60.4667 63.3123 60.4049 61.6557 60.3224 61.2523C60.1576 60.594 60.1782 60.5514 60.6314 60.7001C60.8787 60.7849 62.3625 60.9124 63.9285 60.9549L66.7516 61.0612V57.8116L65.0413 57.9604C62.0327 58.2153 60.24 57.5993 55.7067 54.7535C54.2849 53.8616 53.0691 53.1819 53.0278 53.2243C52.9249 53.3307 53.6049 54.5624 54.9031 56.6436C56.1394 58.6399 57.2316 61.2097 57.4789 62.7813C57.9734 65.6484 57.2933 68.8128 55.7685 70.6604C55.3563 71.1918 53.7698 72.6996 52.2656 74.0373C50.7612 75.375 49.1952 76.8621 48.783 77.3292L48.0412 78.1789L47.0522 77.1167Z" fill="#EBB782"/>
</svg>
